<svg width="137" height="137" viewBox="0 0 137 137" fill="none" xmlns="http://www.w3.org/2000/svg">
<path d="M33.2675 130.791H100.526C101.321 130.76 102.092 130.508 102.752 130.063L115.339 121.843C115.928 121.455 116.412 120.928 116.748 120.308C117.084 119.688 117.262 118.995 117.266 118.29V88.8775C117.245 88.2455 117.084 87.6259 116.796 87.0633C116.507 86.5008 116.097 86.0091 115.596 85.6237L103.18 75.6484C102.427 75.0441 101.492 74.7121 100.526 74.7065H61.9947C59.1025 74.7169 56.2907 75.6597 53.9769 77.3951C51.6631 79.1304 49.9707 81.5657 49.1509 84.3394L37.2063 88.1069L26.2891 79.844C23.5588 77.7941 20.215 76.7291 16.8021 76.8224C13.3893 76.9157 10.1085 78.1618 7.49438 80.3578C5.96436 81.6447 4.70652 83.224 3.79454 85.0032C2.88256 86.7823 2.33478 88.7256 2.18327 90.7191C2.03176 92.7126 2.27958 94.7163 2.91221 96.6129C3.54483 98.5094 4.54955 100.261 5.86751 101.764L29.9709 129.292C30.3776 129.768 30.8835 130.149 31.453 130.407C32.0225 130.666 32.6419 130.797 33.2675 130.791ZM99.2416 122.228H35.0228L12.2894 96.0272C11.7288 95.3825 11.3016 94.6331 11.0324 93.8222C10.7632 93.0114 10.6574 92.1553 10.7211 91.3034C10.7848 90.4514 11.0168 89.6206 11.4035 88.8588C11.7903 88.097 12.3242 87.4195 12.9744 86.8653C14.1216 85.8256 15.6039 85.2321 17.1517 85.1928C18.6995 85.1535 20.2099 85.671 21.4084 86.6512L34.2522 96.284C34.7938 96.6963 35.4258 96.9734 36.0959 97.0926C36.766 97.2117 37.4548 97.1694 38.1053 96.969L50.05 93.2444C51.0287 95.7562 52.74 97.9158 54.9616 99.4427C57.1833 100.97 59.8127 101.793 62.5084 101.807H77.0647C78.2001 101.807 79.2891 101.356 80.092 100.553C80.8949 99.75 81.3459 98.6611 81.3459 97.5256C81.3459 96.3901 80.8949 95.3012 80.092 94.4983C79.2891 93.6954 78.2001 93.2444 77.0647 93.2444H62.0375C60.8275 93.1306 59.7034 92.5696 58.8852 91.6709C58.067 90.7722 57.6135 89.6005 57.6135 88.3851C57.6135 87.1698 58.067 85.9981 58.8852 85.0994C59.7034 84.2007 60.8275 83.6396 62.0375 83.5259H99.0275L108.703 90.9325V115.978L99.2416 122.228Z" fill="#000308" stroke="#D3F7F5" stroke-width="4.93694"/>
<path d="M112.989 74.7925V130.663H130.414V74.7925H112.989Z" fill="#017670"/>
<path d="M112.989 134.945H130.414C131.55 134.945 132.638 134.494 133.441 133.691C134.244 132.888 134.695 131.799 134.695 130.664V75.0073C134.695 73.8719 134.244 72.7829 133.441 71.98C132.638 71.1771 131.55 70.7261 130.414 70.7261H112.989C111.854 70.7261 110.765 71.1771 109.962 71.98C109.159 72.7829 108.708 73.8719 108.708 75.0073V130.664C108.708 131.799 109.159 132.888 109.962 133.691C110.765 134.494 111.854 134.945 112.989 134.945ZM126.133 126.382H117.271V79.2886H126.133V126.382Z" fill="#000308" stroke="#D3F7F5" stroke-width="4.93694"/>
<path d="M38.53 78.5177L52.5297 65.1602C59.3807 67.8871 66.9858 68.0494 73.9469 65.6171C80.908 63.1849 86.7572 58.3216 90.4192 51.9215C94.0812 45.5213 95.3098 38.0143 93.8793 30.7806C92.4487 23.5469 88.4551 17.0728 82.6326 12.5483C76.8101 8.02377 69.55 5.75308 62.1871 6.15362C54.8243 6.55416 47.8534 9.59903 42.5561 14.7284C37.2587 19.8579 33.991 26.7271 33.3536 34.0732C32.7162 41.4194 34.7519 48.7488 39.0866 54.714L38.53 78.5177Z" fill="#F9CE55"/>
<path d="M38.5241 82.7986C39.6264 82.7942 40.6845 82.3648 41.4781 81.5999L53.5941 70.0833C61.4479 72.5117 69.9068 72.089 77.4795 68.8899C85.0521 65.6909 91.252 59.9208 94.9861 52.5971C98.7201 45.2735 99.7484 36.8666 97.8897 28.8589C96.0309 20.8511 91.4045 13.7568 84.8262 8.8268C78.2479 3.89681 70.1402 1.44779 61.9326 1.91156C53.7251 2.37533 45.9449 5.7221 39.9638 11.3618C33.9827 17.0014 30.185 24.5717 29.2401 32.7379C28.2953 40.9041 30.2641 49.1416 34.7994 55.998L34.2428 78.4317C34.2428 79.5672 34.6939 80.6562 35.4968 81.459C36.2996 82.2619 37.3886 82.713 38.5241 82.713V82.7986ZM52.5666 60.8786C51.4643 60.883 50.4062 61.3124 49.6125 62.0774L43.2334 68.4992L43.5759 55.0561C43.6592 54.0529 43.3864 53.0525 42.8053 52.2305C39.5549 47.7411 37.8118 42.3367 37.8268 36.7942C37.8417 31.2517 39.6138 25.8567 42.8883 21.3849C46.1629 16.9132 50.7711 13.595 56.0505 11.9074C61.3298 10.2199 67.0083 10.25 72.2695 11.9934C77.5307 13.7368 82.1035 17.1037 85.3304 21.6099C88.5574 26.1162 90.2722 31.5297 90.2283 37.072C90.1845 42.6143 88.3842 48 85.0864 52.4546C81.7886 56.9093 77.1631 60.2034 71.875 61.8633C66.1303 63.7185 59.9157 63.4911 54.3219 61.2211C53.8176 61.0218 53.28 60.9201 52.7378 60.9214L52.5666 60.8786ZM112.547 34.2492C113.682 34.2492 114.771 33.7982 115.574 32.9953C116.377 32.1924 116.828 31.1034 116.828 29.968V19.693C116.828 18.5575 116.377 17.4686 115.574 16.6657C114.771 15.8628 113.682 15.4117 112.547 15.4117C111.411 15.4117 110.322 15.8628 109.52 16.6657C108.717 17.4686 108.266 18.5575 108.266 19.693V29.968C108.266 31.1034 108.717 32.1924 109.52 32.9953C110.322 33.7982 111.411 34.2492 112.547 34.2492Z" fill="#000308" stroke="#D3F7F5" stroke-width="4.93694"/>
<path d="M107.455 29.0698H117.602C118.737 29.0698 119.826 28.6188 120.629 27.8159C121.432 27.013 121.883 25.924 121.883 24.7886C121.883 23.6531 121.432 22.5642 120.629 21.7613C119.826 20.9584 118.737 20.5073 117.602 20.5073H107.455C106.32 20.5073 105.231 20.9584 104.428 21.7613C103.625 22.5642 103.174 23.6531 103.174 24.7886C103.174 25.924 103.625 27.013 104.428 27.8159C105.231 28.6188 106.32 29.0698 107.455 29.0698ZM11.6834 67.0017C12.8189 67.0017 13.9079 66.5506 14.7107 65.7478C15.5136 64.9449 15.9647 63.8559 15.9647 62.7204V52.5739C15.9647 51.4384 15.5136 50.3495 14.7107 49.5466C13.9079 48.7437 12.8189 48.2926 11.6834 48.2926C10.548 48.2926 9.45903 48.7437 8.65614 49.5466C7.85325 50.3495 7.40219 51.4384 7.40219 52.5739V62.7633C7.41347 63.8913 7.86951 64.9693 8.67117 65.7629C9.47285 66.5566 10.5554 67.0018 11.6834 67.0017Z" fill="#000308" stroke="#D3F7F5" stroke-width="4.93694"/>
<path d="M6.59969 61.9067H16.7891C17.9245 61.9067 19.0135 61.4557 19.8164 60.6528C20.6193 59.8499 21.0703 58.7609 21.0703 57.6255C21.0703 56.49 20.6193 55.4011 19.8164 54.5982C19.0135 53.7953 17.9245 53.3442 16.7891 53.3442H6.59969C5.46423 53.3442 4.37528 53.7953 3.57239 54.5982C2.7695 55.4011 2.31844 56.49 2.31844 57.6255C2.31844 58.7609 2.7695 59.8499 3.57239 60.6528C4.37528 61.4557 5.46423 61.9067 6.59969 61.9067Z" fill="#000308" stroke="#D3F7F5" stroke-width="4.93694"/>
</svg>
