<svg width="53" height="32" viewBox="0 0 53 32" fill="none" xmlns="http://www.w3.org/2000/svg">
<path d="M39.149 2.83398H35.9453V6.21052H39.149V2.83398Z" fill="#FDBE5C"/>
<path d="M10.4141 23.0931V6.15771H20.3078V9.35993H13.6119V12.9035H20.3078V16.1057H13.6119V23.0946H10.4141V23.0931Z" fill="black"/>
<path d="M21.4844 23.0931V6.15771H31.3869V9.35993H24.691V12.9035H31.3869V16.1057H24.691V23.0946H21.4844V23.0931Z" fill="black"/>
<path d="M35.9453 13.4937V23.093H39.149V12.3364L35.9453 13.4937Z" fill="black"/>
<path d="M10.4141 23.0931V6.15771H20.3078V9.35993H13.6119V12.9035H20.3078V16.1057H13.6119V23.0946H10.4141V23.0931Z" fill="url(#paint0_linear_6663_10756)"/>
<path d="M21.4844 23.0931V6.15771H31.3869V9.35993H24.691V12.9035H31.3869V16.1057H24.691V23.0946H21.4844V23.0931Z" fill="url(#paint1_linear_6663_10756)"/>
<path d="M35.9453 13.4937V23.093H39.149V12.3364L35.9453 13.4937Z" fill="url(#paint2_linear_6663_10756)"/>
<path d="M35.9453 8.73633V12.901L39.149 11.7437V8.73633H35.9453Z" fill="#FDBE5C"/>
<path d="M42.5271 6.21094H32.5703V9.41462H42.5271V6.21094Z" fill="#FDBE5C"/>
<path d="M12.2842 1.73783H13.9791C13.9864 1.99565 13.9527 2.24028 13.878 2.47027C13.8048 2.70025 13.6934 2.90387 13.5455 3.08112C13.3975 3.25837 13.2144 3.399 12.9947 3.50154C12.775 3.60408 12.5259 3.65535 12.2476 3.65535C11.9693 3.65535 11.7378 3.6114 11.5137 3.52205C11.2896 3.43269 11.0933 3.30671 10.9277 3.14264C10.7622 2.97858 10.6333 2.78375 10.5425 2.55963C10.4517 2.3355 10.4062 2.08794 10.4062 1.81986C10.4062 1.55179 10.4517 1.30569 10.5439 1.08303C10.6362 0.860371 10.7651 0.667008 10.9307 0.504407C11.0962 0.341806 11.2925 0.21729 11.5196 0.129397C11.7451 0.0415047 11.9912 -0.000976562 12.2564 -0.000976562C12.4878 -0.000976562 12.6973 0.0297857 12.8848 0.0927753C13.0723 0.1543 13.2408 0.243658 13.3902 0.359383C13.5396 0.475109 13.6656 0.615736 13.7696 0.779802L13.2862 1.10207C13.1895 0.935078 13.0533 0.800309 12.8819 0.699233C12.709 0.598157 12.501 0.548351 12.2549 0.548351C12.0264 0.548351 11.8213 0.601087 11.6367 0.706558C11.4522 0.812029 11.3042 0.959982 11.1944 1.14895C11.083 1.33792 11.0288 1.56205 11.0288 1.81986C11.0288 2.07768 11.083 2.29888 11.1929 2.49078C11.3013 2.68414 11.4492 2.83356 11.6323 2.94049C11.8169 3.04743 12.0249 3.10163 12.2564 3.10163C12.4146 3.10163 12.5552 3.07966 12.6783 3.03571C12.8028 2.99176 12.9097 2.93024 13.0005 2.84967C13.0914 2.7691 13.1661 2.67681 13.2261 2.57281C13.2862 2.4688 13.3316 2.35894 13.3624 2.24028H12.2813V1.73783H12.2842Z" fill="#007061"/>
<path d="M14.9282 3.47807C14.7495 3.377 14.6104 3.23637 14.5137 3.05619C14.417 2.87455 14.3672 2.66361 14.3672 2.4219C14.3672 2.1802 14.417 1.96486 14.5151 1.78322C14.6148 1.60157 14.7539 1.46241 14.9356 1.3628C15.1172 1.26465 15.3296 1.21484 15.5742 1.21484C15.8189 1.21484 16.0269 1.26172 16.1983 1.35547C16.3697 1.44922 16.5015 1.58399 16.5938 1.75978C16.6861 1.93556 16.7315 2.14797 16.7315 2.39553C16.7315 2.4219 16.7315 2.4512 16.7286 2.48049C16.7271 2.51126 16.7242 2.53323 16.7212 2.54641H14.6895V2.17434H16.2583L16.0928 2.40579C16.1031 2.38528 16.1133 2.35745 16.125 2.32229C16.1368 2.28713 16.1426 2.25784 16.1426 2.2344C16.1426 2.10988 16.1177 2.00295 16.0694 1.91212C16.021 1.8213 15.9536 1.75099 15.8687 1.70118C15.7837 1.65138 15.6841 1.62647 15.5698 1.62647C15.4321 1.62647 15.315 1.65724 15.2183 1.7173C15.1216 1.77736 15.0469 1.86525 14.9971 1.97951C14.9473 2.09377 14.9194 2.2344 14.9165 2.40139C14.9165 2.56839 14.9414 2.71048 14.9927 2.82621C15.044 2.94193 15.1172 3.02982 15.2168 3.08988C15.3164 3.14994 15.4351 3.1807 15.5772 3.1807C15.7193 3.1807 15.854 3.14994 15.9639 3.08988C16.0752 3.02982 16.1661 2.93754 16.2408 2.81302L16.7081 3.00346C16.5879 3.21147 16.4312 3.36675 16.2408 3.47075C16.0503 3.57476 15.8203 3.62603 15.5523 3.62603C15.3179 3.62603 15.1099 3.57622 14.9312 3.47515L14.9282 3.47807Z" fill="#007061"/>
<path d="M17.2344 1.792C17.3428 1.61036 17.4922 1.46973 17.6797 1.36719C17.8672 1.26465 18.0796 1.21338 18.3184 1.21338C18.5572 1.21338 18.7681 1.26465 18.9541 1.36719C19.1402 1.46973 19.2881 1.61182 19.3995 1.792C19.5108 1.97365 19.565 2.18312 19.565 2.42043C19.565 2.65774 19.5093 2.86429 19.3995 3.04594C19.2881 3.22904 19.1402 3.37114 18.9541 3.47368C18.7681 3.57622 18.5557 3.62749 18.3184 3.62749C18.0811 3.62749 17.8672 3.57622 17.6797 3.47368C17.4922 3.37114 17.3428 3.22904 17.2344 3.04594C17.126 2.86283 17.0703 2.65481 17.0703 2.42043C17.0703 2.18605 17.1245 1.97218 17.2344 1.792ZM17.7207 2.8013C17.7808 2.9097 17.8628 2.99613 17.9668 3.05765C18.0708 3.11918 18.188 3.15141 18.3184 3.15141C18.4488 3.15141 18.5616 3.12064 18.6685 3.05765C18.774 2.99613 18.8575 2.9097 18.9175 2.8013C18.9776 2.6929 19.0083 2.56546 19.0083 2.4219C19.0083 2.27834 18.9776 2.1509 18.9175 2.03957C18.8575 1.92824 18.774 1.84327 18.6685 1.78321C18.563 1.72316 18.4458 1.69239 18.3184 1.69239C18.1909 1.69239 18.0708 1.72316 17.9668 1.78321C17.8628 1.84327 17.7808 1.9297 17.7207 2.03957C17.6607 2.1509 17.6299 2.27834 17.6299 2.4219C17.6299 2.56546 17.6607 2.6929 17.7207 2.8013Z" fill="#007061"/>
<path d="M19.7232 4.17098C19.7627 4.19442 19.8096 4.20614 19.8638 4.20614C19.918 4.20614 19.9619 4.19149 19.9971 4.16366C20.0322 4.13583 20.0586 4.09042 20.0777 4.03036C20.0967 3.9703 20.1055 3.89266 20.1055 3.79891V1.26467H20.6387V3.90584C20.6387 4.07284 20.6094 4.21786 20.5537 4.34091C20.4981 4.46396 20.4116 4.55771 20.3003 4.62216C20.1875 4.68808 20.0498 4.72031 19.8858 4.72031C19.8023 4.72031 19.7275 4.71152 19.6646 4.69248C19.6016 4.67344 19.5444 4.64707 19.4961 4.61191C19.4478 4.57675 19.4053 4.53867 19.3672 4.49911L19.6235 4.07723C19.6499 4.11678 19.6836 4.14901 19.7246 4.17245L19.7232 4.17098ZM20.1143 0.110353C20.1817 0.0488287 20.2622 0.0166016 20.356 0.0166016C20.4497 0.0166016 20.5288 0.0473638 20.5948 0.110353C20.6607 0.171878 20.6929 0.25098 20.6929 0.344732C20.6929 0.438484 20.6607 0.511728 20.5948 0.576182C20.5288 0.639172 20.4497 0.6714 20.356 0.6714C20.2622 0.6714 20.1817 0.639172 20.1143 0.576182C20.0469 0.513193 20.0132 0.435554 20.0132 0.344732C20.0132 0.25391 20.0469 0.173343 20.1143 0.110353Z" fill="#007061"/>
<path d="M21.4697 0.107423C21.5386 0.0444334 21.6177 0.012207 21.7085 0.012207C21.8052 0.012207 21.8872 0.0444334 21.9517 0.107423C22.0176 0.171877 22.0498 0.249516 22.0498 0.343268C22.0498 0.43702 22.0176 0.511729 21.9517 0.577649C21.8858 0.643568 21.8052 0.675795 21.7085 0.675795C21.6177 0.675795 21.5386 0.643568 21.4697 0.577649C21.4009 0.511729 21.3672 0.43409 21.3672 0.343268C21.3672 0.252446 21.4009 0.170413 21.4697 0.107423ZM21.9751 1.26467V3.57771H21.4419V1.26467H21.9751Z" fill="#007061"/>
<path d="M23.711 1.26418V1.74173H22.3984V1.26418H23.711ZM23.3228 0.458496V3.57721H22.7852V0.458496H23.3228Z" fill="#007061"/>
<path d="M0.3125 31.9342V28.7627H2.44096V29.3618H1.02882V30.0254H2.28569V30.6246H1.02882V31.9342H0.313965H0.3125Z" fill="black"/>
<path d="M3.92678 28.832C3.92678 28.9566 3.88576 29.0562 3.80519 29.1279C3.72462 29.1997 3.62794 29.2349 3.51808 29.2349C3.40821 29.2349 3.31299 29.1997 3.23096 29.1279C3.15039 29.0562 3.10938 28.958 3.10938 28.832C3.10938 28.7061 3.15039 28.6079 3.23096 28.5361C3.31153 28.4644 3.40821 28.4292 3.51808 28.4292C3.62794 28.4292 3.72316 28.4658 3.80519 28.5361C3.88576 28.6079 3.92678 28.7061 3.92678 28.832ZM3.86232 31.9346H3.17822V29.5279H3.86232V31.9346Z" fill="black"/>
<path d="M4.77344 29.6099C4.88916 29.5762 5.04004 29.5454 5.22315 29.5161C5.40626 29.4868 5.59962 29.4722 5.80178 29.4722C6.00393 29.4722 6.17679 29.4985 6.31302 29.5527C6.44925 29.6055 6.55765 29.6816 6.63676 29.7798C6.71586 29.8779 6.77299 29.9937 6.80668 30.127C6.84037 30.2603 6.85649 30.4112 6.85649 30.5752V31.9346H6.17239V30.6573C6.17239 30.4375 6.14309 30.2822 6.0845 30.19C6.0259 30.0991 5.9175 30.0523 5.7593 30.0523C5.71096 30.0523 5.65822 30.0552 5.60402 30.0596C5.54982 30.064 5.50001 30.0698 5.45753 30.0757V31.9332H4.77344V29.6084V29.6099Z" fill="black"/>
<path d="M8.61574 29.4634C8.8179 29.4634 8.98636 29.4868 9.11966 29.5322C9.25443 29.5776 9.36137 29.6436 9.4434 29.7285C9.52397 29.8135 9.5811 29.9175 9.61479 30.0391C9.64848 30.1607 9.66459 30.2969 9.66459 30.4463V31.8658C9.56645 31.8877 9.43021 31.9126 9.25589 31.9419C9.08157 31.9712 8.87063 31.9859 8.62307 31.9859C8.46779 31.9859 8.3257 31.9727 8.19826 31.9449C8.07081 31.917 7.96241 31.8731 7.87012 31.8101C7.77784 31.7471 7.70752 31.6665 7.65918 31.5655C7.61084 31.4644 7.58594 31.3413 7.58594 31.1949C7.58594 31.0484 7.61377 30.9356 7.6709 30.8374C7.72803 30.7393 7.80274 30.6616 7.89796 30.6045C7.99317 30.5459 8.10157 30.5049 8.22316 30.4785C8.34474 30.4522 8.47219 30.439 8.60402 30.439C8.69192 30.439 8.77102 30.4434 8.83987 30.4507C8.90872 30.458 8.96438 30.4683 9.00687 30.48V30.4155C9.00687 30.2998 8.97171 30.2061 8.90139 30.1358C8.83108 30.0654 8.7095 30.0303 8.53518 30.0303C8.41945 30.0303 8.30373 30.0391 8.19093 30.0552C8.07814 30.0713 7.97999 30.0962 7.89796 30.1255L7.81153 29.5762C7.85108 29.5645 7.90089 29.5513 7.96094 29.5366C8.021 29.5234 8.08546 29.5103 8.15577 29.5C8.22609 29.4897 8.3008 29.4795 8.37844 29.4722C8.45607 29.4648 8.53518 29.4604 8.61428 29.4604L8.61574 29.4634ZM8.67141 31.4585C8.73879 31.4585 8.80325 31.4571 8.86477 31.4541C8.9263 31.4512 8.97464 31.4468 9.01126 31.441V30.9239C8.98343 30.918 8.94241 30.9121 8.88675 30.9063C8.83108 30.9004 8.78128 30.8975 8.73586 30.8975C8.67141 30.8975 8.61135 30.9019 8.55422 30.9092C8.49709 30.9165 8.44728 30.9312 8.4048 30.9532C8.36232 30.9751 8.32863 31.003 8.30373 31.0396C8.27882 31.0762 8.2671 31.1216 8.2671 31.1773C8.2671 31.2842 8.30373 31.3575 8.3755 31.3999C8.44728 31.4424 8.54543 31.4615 8.67141 31.4615V31.4585Z" fill="black"/>
<path d="M10.5625 29.6099C10.6782 29.5762 10.8291 29.5454 11.0122 29.5161C11.1953 29.4868 11.3887 29.4722 11.5908 29.4722C11.793 29.4722 11.9658 29.4985 12.1021 29.5527C12.2383 29.6055 12.3467 29.6816 12.4258 29.7798C12.5049 29.8779 12.5621 29.9937 12.5957 30.127C12.6294 30.2603 12.6456 30.4112 12.6456 30.5752V31.9346H11.9615V30.6573C11.9615 30.4375 11.9322 30.2822 11.8736 30.19C11.815 30.0991 11.7066 30.0523 11.5484 30.0523C11.5 30.0523 11.4473 30.0552 11.3931 30.0596C11.3389 30.064 11.2891 30.0698 11.2466 30.0757V31.9332H10.5625V29.6084V29.6099Z" fill="black"/>
<path d="M13.4219 30.732C13.4219 30.5576 13.4497 30.3936 13.5068 30.2398C13.564 30.086 13.6445 29.9512 13.7515 29.8369C13.8584 29.7227 13.9888 29.6318 14.1411 29.5645C14.2935 29.4971 14.4678 29.4634 14.6641 29.4634C14.793 29.4634 14.9102 29.4751 15.0171 29.4971C15.1241 29.5205 15.2281 29.5527 15.3291 29.5952L15.187 30.1402C15.1226 30.1153 15.0523 30.0947 14.9761 30.0757C14.8999 30.0567 14.8135 30.0479 14.7198 30.0479C14.5176 30.0479 14.3667 30.1109 14.2686 30.2354C14.169 30.3599 14.1192 30.5254 14.1192 30.729C14.1192 30.9458 14.166 31.1128 14.2598 31.2329C14.3535 31.3516 14.5161 31.4117 14.7476 31.4117C14.8296 31.4117 14.919 31.4043 15.0142 31.3882C15.1094 31.3736 15.1958 31.3487 15.2749 31.315L15.3716 31.8731C15.2925 31.9068 15.1929 31.9361 15.0728 31.9595C14.9541 31.9844 14.8223 31.9961 14.6787 31.9961C14.459 31.9961 14.2686 31.9639 14.1104 31.898C13.9507 31.8321 13.8203 31.7427 13.7178 31.6299C13.6152 31.5171 13.5405 31.3838 13.4937 31.23C13.4468 31.0762 13.4219 30.9092 13.4219 30.729V30.732Z" fill="black"/>
<path d="M16.8565 28.832C16.8565 28.9566 16.8154 29.0562 16.7349 29.1279C16.6543 29.1997 16.5576 29.2349 16.4478 29.2349C16.3379 29.2349 16.2427 29.1997 16.1606 29.1279C16.0801 29.0562 16.0391 28.958 16.0391 28.832C16.0391 28.7061 16.0801 28.6079 16.1606 28.5361C16.2412 28.4644 16.3379 28.4292 16.4478 28.4292C16.5576 28.4292 16.6528 28.4658 16.7349 28.5361C16.8154 28.6079 16.8565 28.7061 16.8565 28.832ZM16.792 31.9346H16.1079V29.5279H16.792V31.9346Z" fill="black"/>
<path d="M18.5767 29.4634C18.7788 29.4634 18.9473 29.4868 19.0806 29.5322C19.2154 29.5776 19.3223 29.6436 19.4043 29.7285C19.4849 29.8135 19.542 29.9175 19.5757 30.0391C19.6094 30.1607 19.6255 30.2969 19.6255 30.4463V31.8658C19.5274 31.8877 19.3912 31.9126 19.2168 31.9419C19.0425 31.9712 18.8316 31.9859 18.584 31.9859C18.4287 31.9859 18.2866 31.9727 18.1592 31.9449C18.0317 31.917 17.9233 31.8731 17.8311 31.8101C17.7388 31.7471 17.6685 31.6665 17.6201 31.5655C17.5718 31.4644 17.5469 31.3413 17.5469 31.1949C17.5469 31.0484 17.5747 30.9356 17.6318 30.8374C17.689 30.7393 17.7637 30.6616 17.8589 30.6045C17.9541 30.5459 18.0625 30.5049 18.1841 30.4785C18.3057 30.4522 18.4331 30.439 18.565 30.439C18.6529 30.439 18.732 30.4434 18.8008 30.4507C18.8697 30.458 18.9253 30.4683 18.9678 30.48V30.4155C18.9678 30.2998 18.9326 30.2061 18.8623 30.1358C18.792 30.0654 18.6704 30.0303 18.4961 30.0303C18.3804 30.0303 18.2647 30.0391 18.1519 30.0552C18.0391 30.0713 17.9409 30.0962 17.8589 30.1255L17.7725 29.5762C17.812 29.5645 17.8618 29.5513 17.9219 29.5366C17.9819 29.5234 18.0464 29.5103 18.1167 29.5C18.187 29.4897 18.2617 29.4795 18.3394 29.4722C18.417 29.4648 18.4961 29.4604 18.5752 29.4604L18.5767 29.4634ZM18.6323 31.4585C18.6997 31.4585 18.7642 31.4571 18.8257 31.4541C18.8872 31.4512 18.9356 31.4468 18.9722 31.441V30.9239C18.9444 30.918 18.9033 30.9121 18.8477 30.9063C18.792 30.9004 18.7422 30.8975 18.6968 30.8975C18.6323 30.8975 18.5723 30.9019 18.5152 30.9092C18.458 30.9165 18.4082 30.9312 18.3657 30.9532C18.3233 30.9751 18.2896 31.003 18.2647 31.0396C18.2398 31.0762 18.228 31.1216 18.228 31.1773C18.228 31.2842 18.2647 31.3575 18.3364 31.3999C18.4082 31.4424 18.5064 31.4615 18.6323 31.4615V31.4585Z" fill="black"/>
<path d="M21.4859 31.9801C21.2866 31.9771 21.1255 31.9552 21.0024 31.9156C20.8779 31.876 20.7813 31.8204 20.7095 31.7486C20.6377 31.6768 20.5879 31.5904 20.563 31.4879C20.5366 31.3853 20.5234 31.2711 20.5234 31.1421V28.4922L21.2075 28.3823V31.0044C21.2075 31.066 21.2119 31.1202 21.2207 31.1685C21.2295 31.2169 21.2471 31.2579 21.2735 31.2916C21.2998 31.3253 21.3364 31.3531 21.3863 31.3736C21.4346 31.3956 21.5005 31.4088 21.584 31.4146L21.4873 31.9771L21.4859 31.9801Z" fill="black"/>
<path d="M23.6641 31.9342V28.7627H25.7925V29.3618H24.3804V30.0254H25.6372V30.6246H24.3804V31.9342H23.6655H23.6641Z" fill="black"/>
<path d="M27.2783 28.832C27.2783 28.9566 27.2373 29.0562 27.1568 29.1279C27.0762 29.1997 26.9795 29.2349 26.8696 29.2349C26.7598 29.2349 26.6646 29.1997 26.5825 29.1279C26.502 29.0562 26.4609 28.958 26.4609 28.832C26.4609 28.7061 26.502 28.6079 26.5825 28.5361C26.6631 28.4644 26.7598 28.4292 26.8696 28.4292C26.9795 28.4292 27.0747 28.4658 27.1568 28.5361C27.2373 28.6079 27.2783 28.7061 27.2783 28.832ZM27.2139 31.9346H26.5298V29.5279H27.2139V31.9346Z" fill="black"/>
<path d="M28.1094 28.9287L28.7935 28.8188V29.5278H29.6138V30.0948H28.7935V30.9415C28.7935 31.085 28.8184 31.1993 28.8696 31.2842C28.9195 31.3692 29.022 31.4131 29.1743 31.4131C29.2476 31.4131 29.3238 31.4058 29.4014 31.3926C29.479 31.3794 29.5508 31.3604 29.6153 31.3355L29.7119 31.8658C29.6299 31.8995 29.5376 31.9288 29.4366 31.9522C29.3355 31.9771 29.2124 31.9888 29.0645 31.9888C28.8784 31.9888 28.7232 31.9639 28.6016 31.9127C28.48 31.8614 28.3818 31.7925 28.3086 31.7017C28.2354 31.6124 28.1841 31.5025 28.1548 31.3751C28.1255 31.2461 28.1108 31.1055 28.1108 30.9488V28.9258L28.1094 28.9287Z" fill="black"/>
<path d="M30.4453 29.6099C30.561 29.5762 30.7119 29.5454 30.895 29.5161C31.0781 29.4868 31.2715 29.4722 31.4737 29.4722C31.6758 29.4722 31.8487 29.4985 31.9849 29.5527C32.1211 29.6055 32.2295 29.6816 32.3086 29.7798C32.3877 29.8779 32.4449 29.9937 32.4786 30.127C32.5123 30.2603 32.5284 30.4112 32.5284 30.5752V31.9346H31.8443V30.6573C31.8443 30.4375 31.815 30.2822 31.7564 30.19C31.6978 30.0991 31.5894 30.0523 31.4312 30.0523C31.3828 30.0523 31.3301 30.0552 31.2759 30.0596C31.2217 30.064 31.1719 30.0698 31.1294 30.0757V31.9332H30.4453V29.6084V29.6099Z" fill="black"/>
<path d="M33.3047 30.7495C33.3047 30.5357 33.3369 30.3496 33.4028 30.1885C33.4688 30.0288 33.5552 29.8955 33.6621 29.7886C33.7691 29.6816 33.8921 29.6011 34.0313 29.5454C34.1704 29.4912 34.314 29.4634 34.4605 29.4634C34.8033 29.4634 35.0728 29.5674 35.272 29.7769C35.4712 29.9863 35.5708 30.294 35.5708 30.6997C35.5708 30.7393 35.5694 30.7832 35.5665 30.8301C35.5635 30.877 35.5606 30.9195 35.5577 30.9561H34.0078C34.0225 31.0967 34.0884 31.208 34.2056 31.2901C34.3213 31.3721 34.4781 31.4131 34.6729 31.4131C34.7989 31.4131 34.9219 31.4014 35.042 31.3794C35.1622 31.356 35.2618 31.3282 35.3379 31.2945L35.4302 31.8482C35.3936 31.8658 35.3453 31.8848 35.2837 31.9039C35.2222 31.9214 35.1548 31.9376 35.0801 31.9522C35.0054 31.9669 34.9248 31.9771 34.8399 31.9859C34.7549 31.9947 34.6685 31.9991 34.5835 31.9991C34.3667 31.9991 34.1778 31.9669 34.0166 31.9024C33.8555 31.8379 33.7236 31.75 33.6182 31.6387C33.5127 31.5274 33.4351 31.3956 33.3838 31.2432C33.334 31.0909 33.3076 30.9253 33.3076 30.7495H33.3047ZM34.9102 30.4888C34.9073 30.4302 34.897 30.3745 34.8809 30.3189C34.8648 30.2632 34.8384 30.2149 34.8033 30.1724C34.7681 30.1299 34.7242 30.0947 34.67 30.0669C34.6158 30.0391 34.5498 30.0259 34.4707 30.0259C34.3916 30.0259 34.3286 30.0391 34.273 30.0654C34.2173 30.0918 34.1719 30.1255 34.1353 30.168C34.0987 30.2105 34.0708 30.2603 34.0503 30.3174C34.0298 30.3745 34.0152 30.4317 34.0064 30.4888H34.9102Z" fill="black"/>
<path d="M37.0664 31.4449C37.1924 31.4449 37.2803 31.4331 37.333 31.4082C37.3843 31.3833 37.4107 31.3365 37.4107 31.2662C37.4107 31.2105 37.377 31.1636 37.3096 31.1226C37.2422 31.0816 37.1397 31.0347 37.002 30.9834C36.895 30.9439 36.7984 30.9029 36.7105 30.8604C36.624 30.8179 36.5493 30.7666 36.4878 30.7066C36.4263 30.6465 36.3794 30.5762 36.3457 30.4942C36.312 30.4121 36.2959 30.3125 36.2959 30.1968C36.2959 29.9712 36.3794 29.7925 36.5479 29.6606C36.7163 29.5288 36.9463 29.4644 37.2407 29.4644C37.3872 29.4644 37.5279 29.4775 37.6626 29.5039C37.7974 29.5303 37.9043 29.5581 37.9834 29.5889L37.8648 30.1192C37.7857 30.0913 37.6993 30.0679 37.6055 30.0459C37.5117 30.0239 37.4077 30.0137 37.292 30.0137C37.0781 30.0137 36.9712 30.0737 36.9712 30.1924C36.9712 30.2202 36.9756 30.2437 36.9844 30.2656C36.9932 30.2876 37.0122 30.3081 37.0401 30.3272C37.0679 30.3477 37.1045 30.3682 37.1528 30.3916C37.1997 30.4151 37.2613 30.44 37.3345 30.4678C37.4839 30.5235 37.6084 30.5777 37.7066 30.6319C37.8047 30.6861 37.8809 30.7432 37.938 30.8062C37.9952 30.8692 38.0347 30.938 38.0567 31.0142C38.0801 31.0904 38.0918 31.1783 38.0918 31.2793C38.0918 31.5166 38.0025 31.6968 37.8238 31.8184C37.645 31.94 37.3916 32.0015 37.065 32.0015C36.8511 32.0015 36.6724 31.9839 36.5303 31.9459C36.3882 31.9078 36.29 31.8785 36.2344 31.855L36.3486 31.3013C36.4644 31.3467 36.5845 31.3833 36.7061 31.4082C36.8276 31.4346 36.9492 31.4478 37.0679 31.4478L37.0664 31.4449Z" fill="black"/>
<path d="M39.5664 31.4449C39.6924 31.4449 39.7803 31.4331 39.833 31.4082C39.8843 31.3833 39.9107 31.3365 39.9107 31.2662C39.9107 31.2105 39.877 31.1636 39.8096 31.1226C39.7422 31.0816 39.6397 31.0347 39.502 30.9834C39.395 30.9439 39.2984 30.9029 39.2105 30.8604C39.124 30.8179 39.0493 30.7666 38.9878 30.7066C38.9263 30.6465 38.8794 30.5762 38.8457 30.4942C38.812 30.4121 38.7959 30.3125 38.7959 30.1968C38.7959 29.9712 38.8794 29.7925 39.0479 29.6606C39.2163 29.5288 39.4463 29.4644 39.7407 29.4644C39.8872 29.4644 40.0279 29.4775 40.1626 29.5039C40.2974 29.5303 40.4043 29.5581 40.4834 29.5889L40.3648 30.1192C40.2857 30.0913 40.1993 30.0679 40.1055 30.0459C40.0117 30.0239 39.9077 30.0137 39.792 30.0137C39.5781 30.0137 39.4712 30.0737 39.4712 30.1924C39.4712 30.2202 39.4756 30.2437 39.4844 30.2656C39.4932 30.2876 39.5122 30.3081 39.5401 30.3272C39.5679 30.3477 39.6045 30.3682 39.6529 30.3916C39.6997 30.4151 39.7613 30.44 39.8345 30.4678C39.9839 30.5235 40.1084 30.5777 40.2066 30.6319C40.3047 30.6861 40.3809 30.7432 40.438 30.8062C40.4952 30.8692 40.5347 30.938 40.5567 31.0142C40.5801 31.0904 40.5918 31.1783 40.5918 31.2793C40.5918 31.5166 40.5025 31.6968 40.3238 31.8184C40.145 31.94 39.8916 32.0015 39.565 32.0015C39.3511 32.0015 39.1724 31.9839 39.0303 31.9459C38.8882 31.9078 38.79 31.8785 38.7344 31.855L38.8486 31.3013C38.9644 31.3467 39.0845 31.3833 39.2061 31.4082C39.3276 31.4346 39.4492 31.4478 39.5679 31.4478L39.5664 31.4449Z" fill="black"/>
<path d="M45.1465 28.7627V29.3721H44.1885V31.9356H43.4737V29.3721H42.5156V28.7627H45.148H45.1465Z" fill="black"/>
<path d="M45.3828 30.7495C45.3828 30.5357 45.415 30.3496 45.481 30.1885C45.5469 30.0288 45.6333 29.8955 45.7402 29.7886C45.8472 29.6816 45.9702 29.6011 46.1094 29.5454C46.2486 29.4912 46.3921 29.4634 46.5386 29.4634C46.8814 29.4634 47.1509 29.5674 47.3501 29.7769C47.5494 29.9863 47.649 30.294 47.649 30.6997C47.649 30.7393 47.6475 30.7832 47.6446 30.8301C47.6416 30.877 47.6387 30.9195 47.6358 30.9561H46.086C46.1006 31.0967 46.1665 31.208 46.2837 31.2901C46.3994 31.3721 46.5562 31.4131 46.751 31.4131C46.877 31.4131 47 31.4014 47.1202 31.3794C47.2403 31.356 47.3399 31.3282 47.4161 31.2945L47.5083 31.8482C47.4717 31.8658 47.4234 31.8848 47.3619 31.9039C47.3003 31.9214 47.2329 31.9376 47.1582 31.9522C47.0835 31.9669 47.003 31.9771 46.918 31.9859C46.833 31.9947 46.7466 31.9991 46.6616 31.9991C46.4448 31.9991 46.2559 31.9669 46.0947 31.9024C45.9336 31.8379 45.8018 31.75 45.6963 31.6387C45.5908 31.5274 45.5132 31.3956 45.4619 31.2432C45.4121 31.0909 45.3857 30.9253 45.3857 30.7495H45.3828ZM46.9883 30.4888C46.9854 30.4302 46.9751 30.3745 46.959 30.3189C46.9429 30.2632 46.9165 30.2149 46.8814 30.1724C46.8462 30.1299 46.8023 30.0947 46.7481 30.0669C46.6939 30.0391 46.628 30.0259 46.5489 30.0259C46.4697 30.0259 46.4068 30.0391 46.3511 30.0654C46.2954 30.0918 46.25 30.1255 46.2134 30.168C46.1768 30.2105 46.1489 30.2603 46.1284 30.3174C46.1079 30.3745 46.0933 30.4317 46.0845 30.4888H46.9883Z" fill="black"/>
<path d="M49.1367 31.4449C49.2627 31.4449 49.3506 31.4331 49.4033 31.4082C49.4546 31.3833 49.481 31.3365 49.481 31.2662C49.481 31.2105 49.4473 31.1636 49.3799 31.1226C49.3125 31.0816 49.21 31.0347 49.0723 30.9834C48.9653 30.9439 48.8687 30.9029 48.7808 30.8604C48.6943 30.8179 48.6196 30.7666 48.5581 30.7066C48.4966 30.6465 48.4497 30.5762 48.416 30.4942C48.3823 30.4121 48.3662 30.3125 48.3662 30.1968C48.3662 29.9712 48.4497 29.7925 48.6182 29.6606C48.7866 29.5288 49.0166 29.4644 49.3111 29.4644C49.4575 29.4644 49.5982 29.4775 49.7329 29.5039C49.8677 29.5303 49.9746 29.5581 50.0537 29.5889L49.9351 30.1192C49.856 30.0913 49.7696 30.0679 49.6758 30.0459C49.5821 30.0239 49.4781 30.0137 49.3623 30.0137C49.1485 30.0137 49.0415 30.0737 49.0415 30.1924C49.0415 30.2202 49.0459 30.2437 49.0547 30.2656C49.0635 30.2876 49.0825 30.3081 49.1104 30.3272C49.1382 30.3477 49.1748 30.3682 49.2232 30.3916C49.27 30.4151 49.3316 30.44 49.4048 30.4678C49.5542 30.5235 49.6787 30.5777 49.7769 30.6319C49.875 30.6861 49.9512 30.7432 50.0083 30.8062C50.0655 30.8692 50.105 30.938 50.127 31.0142C50.1504 31.0904 50.1622 31.1783 50.1622 31.2793C50.1622 31.5166 50.0728 31.6968 49.8941 31.8184C49.7154 31.94 49.4619 32.0015 49.1353 32.0015C48.9214 32.0015 48.7427 31.9839 48.6006 31.9459C48.4585 31.9078 48.3604 31.8785 48.3047 31.855L48.4189 31.3013C48.5347 31.3467 48.6548 31.3833 48.7764 31.4082C48.898 31.4346 49.0195 31.4478 49.1382 31.4478L49.1367 31.4449Z" fill="black"/>
<path d="M50.9219 28.9287L51.606 28.8188V29.5278H52.4263V30.0948H51.606V30.9415C51.606 31.085 51.6309 31.1993 51.6821 31.2842C51.732 31.3692 51.8345 31.4131 51.9868 31.4131C52.0601 31.4131 52.1363 31.4058 52.2139 31.3926C52.2915 31.3794 52.3633 31.3604 52.4278 31.3355L52.5244 31.8658C52.4424 31.8995 52.3501 31.9288 52.2491 31.9522C52.148 31.9771 52.0249 31.9888 51.877 31.9888C51.6909 31.9888 51.5357 31.9639 51.4141 31.9127C51.2925 31.8614 51.1943 31.7925 51.1211 31.7017C51.0479 31.6124 50.9966 31.5025 50.9673 31.3751C50.938 31.2461 50.9233 31.1055 50.9233 30.9488V28.9258L50.9219 28.9287Z" fill="black"/>
<path d="M0.3125 31.9342V28.7627H2.44096V29.3618H1.02882V30.0254H2.28569V30.6246H1.02882V31.9342H0.313965H0.3125Z" fill="black"/>
<path d="M3.92678 28.832C3.92678 28.9566 3.88576 29.0562 3.80519 29.1279C3.72462 29.1997 3.62794 29.2349 3.51808 29.2349C3.40821 29.2349 3.31299 29.1997 3.23096 29.1279C3.15039 29.0562 3.10938 28.958 3.10938 28.832C3.10938 28.7061 3.15039 28.6079 3.23096 28.5361C3.31153 28.4644 3.40821 28.4292 3.51808 28.4292C3.62794 28.4292 3.72316 28.4658 3.80519 28.5361C3.88576 28.6079 3.92678 28.7061 3.92678 28.832ZM3.86232 31.9346H3.17822V29.5279H3.86232V31.9346Z" fill="black"/>
<path d="M4.77344 29.6099C4.88916 29.5762 5.04004 29.5454 5.22315 29.5161C5.40626 29.4868 5.59962 29.4722 5.80178 29.4722C6.00393 29.4722 6.17679 29.4985 6.31302 29.5527C6.44925 29.6055 6.55765 29.6816 6.63676 29.7798C6.71586 29.8779 6.77299 29.9937 6.80668 30.127C6.84037 30.2603 6.85649 30.4112 6.85649 30.5752V31.9346H6.17239V30.6573C6.17239 30.4375 6.14309 30.2822 6.0845 30.19C6.0259 30.0991 5.9175 30.0523 5.7593 30.0523C5.71096 30.0523 5.65822 30.0552 5.60402 30.0596C5.54982 30.064 5.50001 30.0698 5.45753 30.0757V31.9332H4.77344V29.6084V29.6099Z" fill="black"/>
<path d="M8.61574 29.4634C8.8179 29.4634 8.98636 29.4868 9.11966 29.5322C9.25443 29.5776 9.36137 29.6436 9.4434 29.7285C9.52397 29.8135 9.5811 29.9175 9.61479 30.0391C9.64848 30.1607 9.66459 30.2969 9.66459 30.4463V31.8658C9.56645 31.8877 9.43021 31.9126 9.25589 31.9419C9.08157 31.9712 8.87063 31.9859 8.62307 31.9859C8.46779 31.9859 8.3257 31.9727 8.19826 31.9449C8.07081 31.917 7.96241 31.8731 7.87012 31.8101C7.77784 31.7471 7.70752 31.6665 7.65918 31.5655C7.61084 31.4644 7.58594 31.3413 7.58594 31.1949C7.58594 31.0484 7.61377 30.9356 7.6709 30.8374C7.72803 30.7393 7.80274 30.6616 7.89796 30.6045C7.99317 30.5459 8.10157 30.5049 8.22316 30.4785C8.34474 30.4522 8.47219 30.439 8.60402 30.439C8.69192 30.439 8.77102 30.4434 8.83987 30.4507C8.90872 30.458 8.96438 30.4683 9.00687 30.48V30.4155C9.00687 30.2998 8.97171 30.2061 8.90139 30.1358C8.83108 30.0654 8.7095 30.0303 8.53518 30.0303C8.41945 30.0303 8.30373 30.0391 8.19093 30.0552C8.07814 30.0713 7.97999 30.0962 7.89796 30.1255L7.81153 29.5762C7.85108 29.5645 7.90089 29.5513 7.96094 29.5366C8.021 29.5234 8.08546 29.5103 8.15577 29.5C8.22609 29.4897 8.3008 29.4795 8.37844 29.4722C8.45607 29.4648 8.53518 29.4604 8.61428 29.4604L8.61574 29.4634ZM8.67141 31.4585C8.73879 31.4585 8.80325 31.4571 8.86477 31.4541C8.9263 31.4512 8.97464 31.4468 9.01126 31.441V30.9239C8.98343 30.918 8.94241 30.9121 8.88675 30.9063C8.83108 30.9004 8.78128 30.8975 8.73586 30.8975C8.67141 30.8975 8.61135 30.9019 8.55422 30.9092C8.49709 30.9165 8.44728 30.9312 8.4048 30.9532C8.36232 30.9751 8.32863 31.003 8.30373 31.0396C8.27882 31.0762 8.2671 31.1216 8.2671 31.1773C8.2671 31.2842 8.30373 31.3575 8.3755 31.3999C8.44728 31.4424 8.54543 31.4615 8.67141 31.4615V31.4585Z" fill="black"/>
<path d="M10.5625 29.6099C10.6782 29.5762 10.8291 29.5454 11.0122 29.5161C11.1953 29.4868 11.3887 29.4722 11.5908 29.4722C11.793 29.4722 11.9658 29.4985 12.1021 29.5527C12.2383 29.6055 12.3467 29.6816 12.4258 29.7798C12.5049 29.8779 12.5621 29.9937 12.5957 30.127C12.6294 30.2603 12.6456 30.4112 12.6456 30.5752V31.9346H11.9615V30.6573C11.9615 30.4375 11.9322 30.2822 11.8736 30.19C11.815 30.0991 11.7066 30.0523 11.5484 30.0523C11.5 30.0523 11.4473 30.0552 11.3931 30.0596C11.3389 30.064 11.2891 30.0698 11.2466 30.0757V31.9332H10.5625V29.6084V29.6099Z" fill="black"/>
<path d="M13.4219 30.732C13.4219 30.5576 13.4497 30.3936 13.5068 30.2398C13.564 30.086 13.6445 29.9512 13.7515 29.8369C13.8584 29.7227 13.9888 29.6318 14.1411 29.5645C14.2935 29.4971 14.4678 29.4634 14.6641 29.4634C14.793 29.4634 14.9102 29.4751 15.0171 29.4971C15.1241 29.5205 15.2281 29.5527 15.3291 29.5952L15.187 30.1402C15.1226 30.1153 15.0523 30.0947 14.9761 30.0757C14.8999 30.0567 14.8135 30.0479 14.7198 30.0479C14.5176 30.0479 14.3667 30.1109 14.2686 30.2354C14.169 30.3599 14.1192 30.5254 14.1192 30.729C14.1192 30.9458 14.166 31.1128 14.2598 31.2329C14.3535 31.3516 14.5161 31.4117 14.7476 31.4117C14.8296 31.4117 14.919 31.4043 15.0142 31.3882C15.1094 31.3736 15.1958 31.3487 15.2749 31.315L15.3716 31.8731C15.2925 31.9068 15.1929 31.9361 15.0728 31.9595C14.9541 31.9844 14.8223 31.9961 14.6787 31.9961C14.459 31.9961 14.2686 31.9639 14.1104 31.898C13.9507 31.8321 13.8203 31.7427 13.7178 31.6299C13.6152 31.5171 13.5405 31.3838 13.4937 31.23C13.4468 31.0762 13.4219 30.9092 13.4219 30.729V30.732Z" fill="black"/>
<path d="M16.8565 28.832C16.8565 28.9566 16.8154 29.0562 16.7349 29.1279C16.6543 29.1997 16.5576 29.2349 16.4478 29.2349C16.3379 29.2349 16.2427 29.1997 16.1606 29.1279C16.0801 29.0562 16.0391 28.958 16.0391 28.832C16.0391 28.7061 16.0801 28.6079 16.1606 28.5361C16.2412 28.4644 16.3379 28.4292 16.4478 28.4292C16.5576 28.4292 16.6528 28.4658 16.7349 28.5361C16.8154 28.6079 16.8565 28.7061 16.8565 28.832ZM16.792 31.9346H16.1079V29.5279H16.792V31.9346Z" fill="black"/>
<path d="M18.5767 29.4634C18.7788 29.4634 18.9473 29.4868 19.0806 29.5322C19.2154 29.5776 19.3223 29.6436 19.4043 29.7285C19.4849 29.8135 19.542 29.9175 19.5757 30.0391C19.6094 30.1607 19.6255 30.2969 19.6255 30.4463V31.8658C19.5274 31.8877 19.3912 31.9126 19.2168 31.9419C19.0425 31.9712 18.8316 31.9859 18.584 31.9859C18.4287 31.9859 18.2866 31.9727 18.1592 31.9449C18.0317 31.917 17.9233 31.8731 17.8311 31.8101C17.7388 31.7471 17.6685 31.6665 17.6201 31.5655C17.5718 31.4644 17.5469 31.3413 17.5469 31.1949C17.5469 31.0484 17.5747 30.9356 17.6318 30.8374C17.689 30.7393 17.7637 30.6616 17.8589 30.6045C17.9541 30.5459 18.0625 30.5049 18.1841 30.4785C18.3057 30.4522 18.4331 30.439 18.565 30.439C18.6529 30.439 18.732 30.4434 18.8008 30.4507C18.8697 30.458 18.9253 30.4683 18.9678 30.48V30.4155C18.9678 30.2998 18.9326 30.2061 18.8623 30.1358C18.792 30.0654 18.6704 30.0303 18.4961 30.0303C18.3804 30.0303 18.2647 30.0391 18.1519 30.0552C18.0391 30.0713 17.9409 30.0962 17.8589 30.1255L17.7725 29.5762C17.812 29.5645 17.8618 29.5513 17.9219 29.5366C17.9819 29.5234 18.0464 29.5103 18.1167 29.5C18.187 29.4897 18.2617 29.4795 18.3394 29.4722C18.417 29.4648 18.4961 29.4604 18.5752 29.4604L18.5767 29.4634ZM18.6323 31.4585C18.6997 31.4585 18.7642 31.4571 18.8257 31.4541C18.8872 31.4512 18.9356 31.4468 18.9722 31.441V30.9239C18.9444 30.918 18.9033 30.9121 18.8477 30.9063C18.792 30.9004 18.7422 30.8975 18.6968 30.8975C18.6323 30.8975 18.5723 30.9019 18.5152 30.9092C18.458 30.9165 18.4082 30.9312 18.3657 30.9532C18.3233 30.9751 18.2896 31.003 18.2647 31.0396C18.2398 31.0762 18.228 31.1216 18.228 31.1773C18.228 31.2842 18.2647 31.3575 18.3364 31.3999C18.4082 31.4424 18.5064 31.4615 18.6323 31.4615V31.4585Z" fill="black"/>
<path d="M21.4859 31.9801C21.2866 31.9771 21.1255 31.9552 21.0024 31.9156C20.8779 31.876 20.7813 31.8204 20.7095 31.7486C20.6377 31.6768 20.5879 31.5904 20.563 31.4879C20.5366 31.3853 20.5234 31.2711 20.5234 31.1421V28.4922L21.2075 28.3823V31.0044C21.2075 31.066 21.2119 31.1202 21.2207 31.1685C21.2295 31.2169 21.2471 31.2579 21.2735 31.2916C21.2998 31.3253 21.3364 31.3531 21.3863 31.3736C21.4346 31.3956 21.5005 31.4088 21.584 31.4146L21.4873 31.9771L21.4859 31.9801Z" fill="black"/>
<path d="M23.6641 31.9342V28.7627H25.7925V29.3618H24.3804V30.0254H25.6372V30.6246H24.3804V31.9342H23.6655H23.6641Z" fill="black"/>
<path d="M27.2783 28.832C27.2783 28.9566 27.2373 29.0562 27.1568 29.1279C27.0762 29.1997 26.9795 29.2349 26.8696 29.2349C26.7598 29.2349 26.6646 29.1997 26.5825 29.1279C26.502 29.0562 26.4609 28.958 26.4609 28.832C26.4609 28.7061 26.502 28.6079 26.5825 28.5361C26.6631 28.4644 26.7598 28.4292 26.8696 28.4292C26.9795 28.4292 27.0747 28.4658 27.1568 28.5361C27.2373 28.6079 27.2783 28.7061 27.2783 28.832ZM27.2139 31.9346H26.5298V29.5279H27.2139V31.9346Z" fill="black"/>
<path d="M28.1094 28.9287L28.7935 28.8188V29.5278H29.6138V30.0948H28.7935V30.9415C28.7935 31.085 28.8184 31.1993 28.8696 31.2842C28.9195 31.3692 29.022 31.4131 29.1743 31.4131C29.2476 31.4131 29.3238 31.4058 29.4014 31.3926C29.479 31.3794 29.5508 31.3604 29.6153 31.3355L29.7119 31.8658C29.6299 31.8995 29.5376 31.9288 29.4366 31.9522C29.3355 31.9771 29.2124 31.9888 29.0645 31.9888C28.8784 31.9888 28.7232 31.9639 28.6016 31.9127C28.48 31.8614 28.3818 31.7925 28.3086 31.7017C28.2354 31.6124 28.1841 31.5025 28.1548 31.3751C28.1255 31.2461 28.1108 31.1055 28.1108 30.9488V28.9258L28.1094 28.9287Z" fill="black"/>
<path d="M30.4453 29.6099C30.561 29.5762 30.7119 29.5454 30.895 29.5161C31.0781 29.4868 31.2715 29.4722 31.4737 29.4722C31.6758 29.4722 31.8487 29.4985 31.9849 29.5527C32.1211 29.6055 32.2295 29.6816 32.3086 29.7798C32.3877 29.8779 32.4449 29.9937 32.4786 30.127C32.5123 30.2603 32.5284 30.4112 32.5284 30.5752V31.9346H31.8443V30.6573C31.8443 30.4375 31.815 30.2822 31.7564 30.19C31.6978 30.0991 31.5894 30.0523 31.4312 30.0523C31.3828 30.0523 31.3301 30.0552 31.2759 30.0596C31.2217 30.064 31.1719 30.0698 31.1294 30.0757V31.9332H30.4453V29.6084V29.6099Z" fill="black"/>
<path d="M33.3047 30.7495C33.3047 30.5357 33.3369 30.3496 33.4028 30.1885C33.4688 30.0288 33.5552 29.8955 33.6621 29.7886C33.7691 29.6816 33.8921 29.6011 34.0313 29.5454C34.1704 29.4912 34.314 29.4634 34.4605 29.4634C34.8033 29.4634 35.0728 29.5674 35.272 29.7769C35.4712 29.9863 35.5708 30.294 35.5708 30.6997C35.5708 30.7393 35.5694 30.7832 35.5665 30.8301C35.5635 30.877 35.5606 30.9195 35.5577 30.9561H34.0078C34.0225 31.0967 34.0884 31.208 34.2056 31.2901C34.3213 31.3721 34.4781 31.4131 34.6729 31.4131C34.7989 31.4131 34.9219 31.4014 35.042 31.3794C35.1622 31.356 35.2618 31.3282 35.3379 31.2945L35.4302 31.8482C35.3936 31.8658 35.3453 31.8848 35.2837 31.9039C35.2222 31.9214 35.1548 31.9376 35.0801 31.9522C35.0054 31.9669 34.9248 31.9771 34.8399 31.9859C34.7549 31.9947 34.6685 31.9991 34.5835 31.9991C34.3667 31.9991 34.1778 31.9669 34.0166 31.9024C33.8555 31.8379 33.7236 31.75 33.6182 31.6387C33.5127 31.5274 33.4351 31.3956 33.3838 31.2432C33.334 31.0909 33.3076 30.9253 33.3076 30.7495H33.3047ZM34.9102 30.4888C34.9073 30.4302 34.897 30.3745 34.8809 30.3189C34.8648 30.2632 34.8384 30.2149 34.8033 30.1724C34.7681 30.1299 34.7242 30.0947 34.67 30.0669C34.6158 30.0391 34.5498 30.0259 34.4707 30.0259C34.3916 30.0259 34.3286 30.0391 34.273 30.0654C34.2173 30.0918 34.1719 30.1255 34.1353 30.168C34.0987 30.2105 34.0708 30.2603 34.0503 30.3174C34.0298 30.3745 34.0152 30.4317 34.0064 30.4888H34.9102Z" fill="black"/>
<path d="M37.0664 31.4449C37.1924 31.4449 37.2803 31.4331 37.333 31.4082C37.3843 31.3833 37.4107 31.3365 37.4107 31.2662C37.4107 31.2105 37.377 31.1636 37.3096 31.1226C37.2422 31.0816 37.1397 31.0347 37.002 30.9834C36.895 30.9439 36.7984 30.9029 36.7105 30.8604C36.624 30.8179 36.5493 30.7666 36.4878 30.7066C36.4263 30.6465 36.3794 30.5762 36.3457 30.4942C36.312 30.4121 36.2959 30.3125 36.2959 30.1968C36.2959 29.9712 36.3794 29.7925 36.5479 29.6606C36.7163 29.5288 36.9463 29.4644 37.2407 29.4644C37.3872 29.4644 37.5279 29.4775 37.6626 29.5039C37.7974 29.5303 37.9043 29.5581 37.9834 29.5889L37.8648 30.1192C37.7857 30.0913 37.6993 30.0679 37.6055 30.0459C37.5117 30.0239 37.4077 30.0137 37.292 30.0137C37.0781 30.0137 36.9712 30.0737 36.9712 30.1924C36.9712 30.2202 36.9756 30.2437 36.9844 30.2656C36.9932 30.2876 37.0122 30.3081 37.0401 30.3272C37.0679 30.3477 37.1045 30.3682 37.1528 30.3916C37.1997 30.4151 37.2613 30.44 37.3345 30.4678C37.4839 30.5235 37.6084 30.5777 37.7066 30.6319C37.8047 30.6861 37.8809 30.7432 37.938 30.8062C37.9952 30.8692 38.0347 30.938 38.0567 31.0142C38.0801 31.0904 38.0918 31.1783 38.0918 31.2793C38.0918 31.5166 38.0025 31.6968 37.8238 31.8184C37.645 31.94 37.3916 32.0015 37.065 32.0015C36.8511 32.0015 36.6724 31.9839 36.5303 31.9459C36.3882 31.9078 36.29 31.8785 36.2344 31.855L36.3486 31.3013C36.4644 31.3467 36.5845 31.3833 36.7061 31.4082C36.8276 31.4346 36.9492 31.4478 37.0679 31.4478L37.0664 31.4449Z" fill="black"/>
<path d="M39.5664 31.4449C39.6924 31.4449 39.7803 31.4331 39.833 31.4082C39.8843 31.3833 39.9107 31.3365 39.9107 31.2662C39.9107 31.2105 39.877 31.1636 39.8096 31.1226C39.7422 31.0816 39.6397 31.0347 39.502 30.9834C39.395 30.9439 39.2984 30.9029 39.2105 30.8604C39.124 30.8179 39.0493 30.7666 38.9878 30.7066C38.9263 30.6465 38.8794 30.5762 38.8457 30.4942C38.812 30.4121 38.7959 30.3125 38.7959 30.1968C38.7959 29.9712 38.8794 29.7925 39.0479 29.6606C39.2163 29.5288 39.4463 29.4644 39.7407 29.4644C39.8872 29.4644 40.0279 29.4775 40.1626 29.5039C40.2974 29.5303 40.4043 29.5581 40.4834 29.5889L40.3648 30.1192C40.2857 30.0913 40.1993 30.0679 40.1055 30.0459C40.0117 30.0239 39.9077 30.0137 39.792 30.0137C39.5781 30.0137 39.4712 30.0737 39.4712 30.1924C39.4712 30.2202 39.4756 30.2437 39.4844 30.2656C39.4932 30.2876 39.5122 30.3081 39.5401 30.3272C39.5679 30.3477 39.6045 30.3682 39.6529 30.3916C39.6997 30.4151 39.7613 30.44 39.8345 30.4678C39.9839 30.5235 40.1084 30.5777 40.2066 30.6319C40.3047 30.6861 40.3809 30.7432 40.438 30.8062C40.4952 30.8692 40.5347 30.938 40.5567 31.0142C40.5801 31.0904 40.5918 31.1783 40.5918 31.2793C40.5918 31.5166 40.5025 31.6968 40.3238 31.8184C40.145 31.94 39.8916 32.0015 39.565 32.0015C39.3511 32.0015 39.1724 31.9839 39.0303 31.9459C38.8882 31.9078 38.79 31.8785 38.7344 31.855L38.8486 31.3013C38.9644 31.3467 39.0845 31.3833 39.2061 31.4082C39.3276 31.4346 39.4492 31.4478 39.5679 31.4478L39.5664 31.4449Z" fill="black"/>
<path d="M45.1465 28.7627V29.3721H44.1885V31.9356H43.4737V29.3721H42.5156V28.7627H45.148H45.1465Z" fill="black"/>
<path d="M45.3828 30.7495C45.3828 30.5357 45.415 30.3496 45.481 30.1885C45.5469 30.0288 45.6333 29.8955 45.7402 29.7886C45.8472 29.6816 45.9702 29.6011 46.1094 29.5454C46.2486 29.4912 46.3921 29.4634 46.5386 29.4634C46.8814 29.4634 47.1509 29.5674 47.3501 29.7769C47.5494 29.9863 47.649 30.294 47.649 30.6997C47.649 30.7393 47.6475 30.7832 47.6446 30.8301C47.6416 30.877 47.6387 30.9195 47.6358 30.9561H46.086C46.1006 31.0967 46.1665 31.208 46.2837 31.2901C46.3994 31.3721 46.5562 31.4131 46.751 31.4131C46.877 31.4131 47 31.4014 47.1202 31.3794C47.2403 31.356 47.3399 31.3282 47.4161 31.2945L47.5083 31.8482C47.4717 31.8658 47.4234 31.8848 47.3619 31.9039C47.3003 31.9214 47.2329 31.9376 47.1582 31.9522C47.0835 31.9669 47.003 31.9771 46.918 31.9859C46.833 31.9947 46.7466 31.9991 46.6616 31.9991C46.4448 31.9991 46.2559 31.9669 46.0947 31.9024C45.9336 31.8379 45.8018 31.75 45.6963 31.6387C45.5908 31.5274 45.5132 31.3956 45.4619 31.2432C45.4121 31.0909 45.3857 30.9253 45.3857 30.7495H45.3828ZM46.9883 30.4888C46.9854 30.4302 46.9751 30.3745 46.959 30.3189C46.9429 30.2632 46.9165 30.2149 46.8814 30.1724C46.8462 30.1299 46.8023 30.0947 46.7481 30.0669C46.6939 30.0391 46.628 30.0259 46.5489 30.0259C46.4697 30.0259 46.4068 30.0391 46.3511 30.0654C46.2954 30.0918 46.25 30.1255 46.2134 30.168C46.1768 30.2105 46.1489 30.2603 46.1284 30.3174C46.1079 30.3745 46.0933 30.4317 46.0845 30.4888H46.9883Z" fill="black"/>
<path d="M49.1367 31.4449C49.2627 31.4449 49.3506 31.4331 49.4033 31.4082C49.4546 31.3833 49.481 31.3365 49.481 31.2662C49.481 31.2105 49.4473 31.1636 49.3799 31.1226C49.3125 31.0816 49.21 31.0347 49.0723 30.9834C48.9653 30.9439 48.8687 30.9029 48.7808 30.8604C48.6943 30.8179 48.6196 30.7666 48.5581 30.7066C48.4966 30.6465 48.4497 30.5762 48.416 30.4942C48.3823 30.4121 48.3662 30.3125 48.3662 30.1968C48.3662 29.9712 48.4497 29.7925 48.6182 29.6606C48.7866 29.5288 49.0166 29.4644 49.3111 29.4644C49.4575 29.4644 49.5982 29.4775 49.7329 29.5039C49.8677 29.5303 49.9746 29.5581 50.0537 29.5889L49.9351 30.1192C49.856 30.0913 49.7696 30.0679 49.6758 30.0459C49.5821 30.0239 49.4781 30.0137 49.3623 30.0137C49.1485 30.0137 49.0415 30.0737 49.0415 30.1924C49.0415 30.2202 49.0459 30.2437 49.0547 30.2656C49.0635 30.2876 49.0825 30.3081 49.1104 30.3272C49.1382 30.3477 49.1748 30.3682 49.2232 30.3916C49.27 30.4151 49.3316 30.44 49.4048 30.4678C49.5542 30.5235 49.6787 30.5777 49.7769 30.6319C49.875 30.6861 49.9512 30.7432 50.0083 30.8062C50.0655 30.8692 50.105 30.938 50.127 31.0142C50.1504 31.0904 50.1622 31.1783 50.1622 31.2793C50.1622 31.5166 50.0728 31.6968 49.8941 31.8184C49.7154 31.94 49.4619 32.0015 49.1353 32.0015C48.9214 32.0015 48.7427 31.9839 48.6006 31.9459C48.4585 31.9078 48.3604 31.8785 48.3047 31.855L48.4189 31.3013C48.5347 31.3467 48.6548 31.3833 48.7764 31.4082C48.898 31.4346 49.0195 31.4478 49.1382 31.4478L49.1367 31.4449Z" fill="black"/>
<path d="M50.9219 28.9287L51.606 28.8188V29.5278H52.4263V30.0948H51.606V30.9415C51.606 31.085 51.6309 31.1993 51.6821 31.2842C51.732 31.3692 51.8345 31.4131 51.9868 31.4131C52.0601 31.4131 52.1363 31.4058 52.2139 31.3926C52.2915 31.3794 52.3633 31.3604 52.4278 31.3355L52.5244 31.8658C52.4424 31.8995 52.3501 31.9288 52.2491 31.9522C52.148 31.9771 52.0249 31.9888 51.877 31.9888C51.6909 31.9888 51.5357 31.9639 51.4141 31.9127C51.2925 31.8614 51.1943 31.7925 51.1211 31.7017C51.0479 31.6124 50.9966 31.5025 50.9673 31.3751C50.938 31.2461 50.9233 31.1055 50.9233 30.9488V28.9258L50.9219 28.9287Z" fill="black"/>
<path d="M0.273438 27.1963H52.6647" stroke="black" stroke-width="0.146487" stroke-miterlimit="10"/>
<defs>
<linearGradient id="paint0_linear_6663_10756" x1="10.4141" y1="14.6247" x2="39.1505" y2="14.6247" gradientUnits="userSpaceOnUse">
<stop stop-color="#065097"/>
<stop offset="0.5" stop-color="#7264AC"/>
<stop offset="1" stop-color="#AC6FAA"/>
</linearGradient>
<linearGradient id="paint1_linear_6663_10756" x1="10.4143" y1="14.6247" x2="39.1508" y2="14.6247" gradientUnits="userSpaceOnUse">
<stop stop-color="#065097"/>
<stop offset="0.5" stop-color="#7264AC"/>
<stop offset="1" stop-color="#AC6FAA"/>
</linearGradient>
<linearGradient id="paint2_linear_6663_10756" x1="10.4126" y1="14.6246" x2="39.149" y2="14.6246" gradientUnits="userSpaceOnUse">
<stop stop-color="#065097"/>
<stop offset="0.5" stop-color="#7264AC"/>
<stop offset="1" stop-color="#AC6FAA"/>
</linearGradient>
</defs>
</svg>
