<svg width="281" height="46" viewBox="0 0 281 46" fill="none" xmlns="http://www.w3.org/2000/svg">
<path d="M8.37619 7.16878H15.3613C15.3898 8.2327 15.2505 9.23962 14.9465 10.1832C14.6425 11.13 14.1866 11.9691 13.5786 12.7005C12.9707 13.432 12.2139 14.0083 11.3083 14.4326C10.4027 14.8569 9.37678 15.0658 8.23054 15.0658C7.08429 15.0658 6.1312 14.8822 5.20344 14.518C4.27884 14.1507 3.47141 13.6314 2.78746 12.9538C2.10351 12.2762 1.57472 11.4751 1.20108 10.5505C0.827444 9.62592 0.640625 8.6095 0.640625 7.50442C0.640625 6.39934 0.83061 5.38608 1.21058 4.46782C1.59055 3.54956 2.12251 2.75479 2.80646 2.0835C3.49041 1.41222 4.29784 0.899264 5.23194 0.538292C6.16603 0.180486 7.17612 0 8.26854 0C9.22163 0 10.0861 0.126657 10.8587 0.383137C11.6313 0.639617 12.3279 1.00376 12.9422 1.48189C13.5565 1.96002 14.0789 2.5363 14.5064 3.21392L12.5179 4.54065C12.1157 3.85037 11.5616 3.29624 10.8492 2.88144C10.1367 2.46664 9.27863 2.26083 8.26854 2.26083C7.32811 2.26083 6.47951 2.47931 5.71957 2.91311C4.95963 3.34691 4.35167 3.95486 3.89571 4.73697C3.43974 5.51907 3.21176 6.4405 3.21176 7.50442C3.21176 8.56834 3.43658 9.4771 3.88621 10.2719C4.33584 11.0666 4.94063 11.6841 5.70057 12.1274C6.46051 12.5707 7.31861 12.7892 8.2717 12.7892C8.92082 12.7892 9.50027 12.7005 10.0132 12.52C10.523 12.3395 10.9663 12.0862 11.34 11.7538C11.7136 11.4213 12.0239 11.0413 12.2741 10.6138C12.5242 10.1864 12.7079 9.73041 12.8345 9.24595H8.37936V7.17195L8.37619 7.16878Z" fill="#007061"/>
<path d="M19.6787 14.3385C18.9409 13.9237 18.3709 13.3443 17.9688 12.597C17.5667 11.8497 17.3672 10.979 17.3672 9.9847C17.3672 8.99045 17.5698 8.09752 17.9783 7.35341C18.3868 6.60613 18.9631 6.02984 19.7072 5.62137C20.4544 5.21291 21.3315 5.01025 22.3385 5.01025C23.3454 5.01025 24.2035 5.20341 24.9096 5.58971C25.6157 5.97601 26.1572 6.5333 26.5371 7.25841C26.9171 7.98352 27.1071 8.85746 27.1071 9.88021C27.1071 9.99104 27.1039 10.1082 27.0976 10.2317C27.0913 10.3552 27.0786 10.447 27.0659 10.5008H18.6939V8.96828H25.1598L24.4758 9.92138C24.517 9.83905 24.5613 9.72506 24.612 9.5794C24.6595 9.43375 24.6848 9.31342 24.6848 9.21526C24.6848 8.70547 24.5835 8.26217 24.384 7.88853C24.1845 7.51489 23.9058 7.22675 23.5544 7.01776C23.2029 6.81195 22.7913 6.70746 22.3226 6.70746C21.7558 6.70746 21.2714 6.83095 20.8724 7.08109C20.4703 7.33124 20.1663 7.68905 19.9605 8.15768C19.7547 8.62631 19.6407 9.20893 19.628 9.89921C19.628 10.5895 19.7325 11.1753 19.9383 11.6502C20.1441 12.1252 20.4544 12.4893 20.8598 12.7395C21.2651 12.9896 21.7622 13.1131 22.3416 13.1131C22.9211 13.1131 23.4815 12.9896 23.9375 12.7395C24.3935 12.4893 24.7734 12.1094 25.0774 11.5996L27.0058 12.388C26.5086 13.2461 25.8659 13.8889 25.0774 14.3164C24.289 14.7438 23.3422 14.9592 22.2371 14.9592C21.2682 14.9592 20.4165 14.7533 19.6787 14.3385Z" fill="#007061"/>
<path d="M29.6119 7.3975C30.0616 6.65022 30.6727 6.0676 31.4453 5.64647C32.2179 5.22533 33.095 5.01318 34.0766 5.01318C35.0582 5.01318 35.9321 5.22533 36.6984 5.64647C37.4647 6.0676 38.0758 6.65022 38.5318 7.3975C38.9877 8.14478 39.2157 9.00604 39.2157 9.98763C39.2157 10.9692 38.9877 11.8147 38.5318 12.5683C38.0758 13.3219 37.4647 13.9077 36.6984 14.3288C35.9321 14.7499 35.0582 14.9621 34.0766 14.9621C33.095 14.9621 32.2179 14.7531 31.4453 14.3288C30.6727 13.9077 30.0584 13.3219 29.6119 12.5683C29.1623 11.8147 28.9375 10.9566 28.9375 9.98763C28.9375 9.01871 29.1623 8.14161 29.6119 7.3975ZM31.61 11.5518C31.8601 12.0015 32.1958 12.353 32.6264 12.6094C33.0539 12.8659 33.5383 12.9926 34.0766 12.9926C34.6149 12.9926 35.0804 12.8659 35.5173 12.6094C35.9511 12.353 36.2931 12.0015 36.5432 11.5518C36.7934 11.1022 36.9169 10.5798 36.9169 9.98763C36.9169 9.39551 36.7934 8.86989 36.5432 8.41392C36.2931 7.95796 35.9511 7.60649 35.5173 7.35634C35.0835 7.10619 34.6022 6.9827 34.0766 6.9827C33.551 6.9827 33.0539 7.10619 32.6264 7.35634C32.1989 7.60649 31.8601 7.95796 31.61 8.41392C31.3598 8.86989 31.2363 9.39551 31.2363 9.98763C31.2363 10.5798 31.3598 11.1022 31.61 11.5518Z" fill="#007061"/>
<path d="M40.2505 17.2004C40.4151 17.2954 40.6083 17.3461 40.8299 17.3461C41.0516 17.3461 41.2352 17.2859 41.3809 17.1688C41.5265 17.0516 41.6374 16.868 41.7134 16.621C41.7893 16.3708 41.8273 16.0542 41.8273 15.6679V5.22186H44.0248V16.1017C44.0248 16.792 43.9077 17.3904 43.6734 17.8939C43.4391 18.3973 43.0908 18.7836 42.6253 19.056C42.163 19.3251 41.593 19.4613 40.9154 19.4613C40.5703 19.4613 40.2663 19.4233 40.0035 19.3473C39.7407 19.2713 39.5095 19.1605 39.31 19.0148C39.1106 18.8691 38.9332 18.714 38.7812 18.5493L39.8388 16.8078C39.9497 16.9725 40.089 17.1054 40.2536 17.2004H40.2505ZM41.8685 0.462727C42.144 0.206246 42.4765 0.0795898 42.8628 0.0795898C43.2491 0.0795898 43.5784 0.206246 43.8475 0.462727C44.1167 0.719207 44.2528 1.03902 44.2528 1.42532C44.2528 1.81162 44.1198 2.1156 43.8475 2.37841C43.5784 2.64122 43.2491 2.77105 42.8628 2.77105C42.4765 2.77105 42.144 2.64122 41.8685 2.37841C41.593 2.1156 41.4537 1.79896 41.4537 1.42532C41.4537 1.05168 41.593 0.71604 41.8685 0.462727Z" fill="#007061"/>
<path d="M47.8774 0.453184C48.1592 0.190371 48.4885 0.0605469 48.8622 0.0605469C49.2643 0.0605469 49.5968 0.190371 49.8691 0.453184C50.1382 0.715997 50.2744 1.04214 50.2744 1.42844C50.2744 1.81474 50.1414 2.12189 49.8691 2.39103C49.6 2.66018 49.2643 2.79634 48.8622 2.79634C48.4885 2.79634 48.1592 2.66018 47.8774 2.39103C47.5924 2.12189 47.4531 1.79891 47.4531 1.42844C47.4531 1.05797 47.5956 0.715997 47.8774 0.453184ZM49.9578 5.22182V14.7559H47.7603V5.22182H49.9578Z" fill="#007061"/>
<path d="M57.5332 5.22271V7.19222H52.125V5.22271H57.5332ZM55.9374 1.9043V14.7536H53.7209V1.9043H55.9374Z" fill="#007061"/>
<path d="M158.551 42.9131C158.355 42.9922 158.007 43.1252 157.507 43.3089C157.006 43.4957 156.344 43.5875 155.521 43.5875C155.049 43.5875 154.638 43.5274 154.286 43.4102C153.935 43.2931 153.64 43.0904 153.403 42.8086C153.169 42.5236 152.991 42.131 152.874 41.6307C152.757 41.1304 152.697 40.4971 152.697 39.734V35.9185L149.961 36.5581V39.7657C149.961 40.7852 150.043 41.6845 150.211 42.4571C150.379 43.2329 150.667 43.8852 151.079 44.414C151.49 44.9428 152.035 45.3417 152.713 45.6045C153.39 45.8705 154.248 46.0003 155.287 46.0003C156.17 46.0003 156.952 45.8959 157.64 45.69C158.327 45.4842 158.805 45.3132 159.08 45.1739L158.551 42.9099V42.9131Z" fill="url(#paint0_linear_6663_10430)"/>
<path d="M152.696 29.8389V25.7891H149.96V29.8389H145.945V32.3626H149.96V35.9596L152.696 35.3232V32.3626H156.711V29.8389H152.696Z" fill="#FDBE5C"/>
<path d="M0.640625 45.5375V25.1489H12.939V27.5902H3.49357V33.7394H11.8783V36.1522H3.49357V45.5375H0.640625Z" fill="black"/>
<path d="M17.6106 27.4726C17.1198 27.4726 16.705 27.3111 16.3599 26.9881C16.0147 26.6651 15.8438 26.2282 15.8438 25.6804C15.8438 25.1326 16.0147 24.6956 16.3599 24.3726C16.7018 24.0497 17.1198 23.8882 17.6106 23.8882C18.1014 23.8882 18.5162 24.0497 18.8614 24.3726C19.2033 24.6956 19.3775 25.1326 19.3775 25.6804C19.3775 26.2282 19.2065 26.6651 18.8614 26.9881C18.5194 27.3111 18.1014 27.4726 17.6106 27.4726ZM18.9912 45.537H16.2554V30.2369H18.9912V45.537Z" fill="black"/>
<path d="M23.7031 30.6798C24.3301 30.5215 25.1628 30.3569 26.2046 30.1796C27.2432 30.0022 28.4401 29.9136 29.7953 29.9136C31.0112 29.9136 32.0213 30.0846 32.8256 30.4297C33.6299 30.7717 34.2726 31.253 34.7539 31.8704C35.2352 32.4879 35.574 33.2288 35.7704 34.0933C35.9667 34.9577 36.0648 35.9076 36.0648 36.9462V45.5367H33.329V37.5352C33.329 36.5947 33.2657 35.7905 33.1391 35.1223C33.0124 34.4574 32.8003 33.9159 32.5058 33.5043C32.2113 33.0927 31.8187 32.7919 31.3279 32.6082C30.8371 32.4214 30.2291 32.3296 29.504 32.3296C29.2095 32.3296 28.9056 32.3391 28.5921 32.3581C28.2786 32.3771 27.9778 32.4024 27.6928 32.4309C27.4078 32.4594 27.1545 32.4942 26.9265 32.5354C26.7017 32.5734 26.5402 32.605 26.4421 32.624V45.5399H23.7063V30.683L23.7031 30.6798Z" fill="black"/>
<path d="M45.5274 29.8579C46.6261 29.8579 47.5507 30.0004 48.3075 30.2853C49.0611 30.5703 49.6691 30.9725 50.1314 31.4918C50.5905 32.011 50.9198 32.6285 51.1161 33.3441C51.3124 34.0597 51.4106 34.8482 51.4106 35.7126V45.2752C51.1763 45.3132 50.847 45.367 50.4258 45.4367C50.0047 45.5063 49.5266 45.5697 48.9978 45.6267C48.469 45.6868 47.8959 45.7407 47.2753 45.7882C46.6578 45.8356 46.0435 45.861 45.4356 45.861C44.5711 45.861 43.7764 45.7723 43.0512 45.595C42.3261 45.4177 41.6992 45.139 41.1672 44.7559C40.6353 44.3728 40.2268 43.8693 39.9323 43.2392C39.6378 42.6122 39.4922 41.8555 39.4922 40.9752C39.4922 40.0949 39.6632 39.4046 40.0083 38.7967C40.3503 38.1887 40.8189 37.6979 41.4047 37.3243C41.9937 36.9507 42.6808 36.6784 43.4629 36.501C44.2482 36.3237 45.0714 36.2351 45.9327 36.2351C46.2082 36.2351 46.4931 36.2509 46.7845 36.2794C47.0789 36.3079 47.3576 36.349 47.6236 36.3965C47.8895 36.4472 48.1175 36.4884 48.3138 36.5295C48.5102 36.5675 48.6463 36.5992 48.7255 36.6182V35.8519C48.7255 35.4023 48.6748 34.9558 48.5798 34.5125C48.4817 34.0724 48.3043 33.6798 48.051 33.3346C47.7945 32.9926 47.4494 32.7172 47.0061 32.5113C46.5628 32.3055 45.9897 32.201 45.2836 32.201C44.3811 32.201 43.5927 32.2644 42.9151 32.391C42.2375 32.5177 41.734 32.6507 41.4015 32.7868L41.0786 30.5228C41.4332 30.3645 42.019 30.2125 42.8423 30.0669C43.6655 29.9212 44.5585 29.8452 45.5211 29.8452L45.5274 29.8579ZM45.7649 43.5685C46.4108 43.5685 46.9871 43.5527 47.4874 43.5242C47.9877 43.4957 48.4025 43.4418 48.7381 43.3627V38.803C48.5418 38.7049 48.222 38.6225 47.7819 38.5529C47.3386 38.4832 46.8066 38.4516 46.1765 38.4516C45.7649 38.4516 45.3279 38.4801 44.8688 38.5402C44.4096 38.6004 43.9853 38.7207 43.6054 38.9075C43.2222 39.0943 42.9024 39.3477 42.6491 39.6738C42.3926 39.9968 42.266 40.4242 42.266 40.953C42.266 41.9346 42.5794 42.6154 43.2064 42.9985C43.8334 43.3817 44.6883 43.5717 45.7649 43.5717V43.5685Z" fill="black"/>
<path d="M55.9531 30.6798C56.5801 30.5215 57.4128 30.3569 58.4546 30.1796C59.4932 30.0022 60.6901 29.9136 62.0453 29.9136C63.2612 29.9136 64.2713 30.0846 65.0756 30.4297C65.8799 30.7717 66.5226 31.253 67.0039 31.8704C67.4852 32.4879 67.824 33.2288 68.0204 34.0933C68.2167 34.9577 68.3148 35.9076 68.3148 36.9462V45.5367H65.5791V37.5352C65.5791 36.5947 65.5157 35.7905 65.3891 35.1223C65.2624 34.4574 65.0503 33.9159 64.7558 33.5043C64.4613 33.0927 64.0687 32.7919 63.5779 32.6082C63.0871 32.4214 62.4791 32.3296 61.754 32.3296C61.4595 32.3296 61.1556 32.3391 60.8421 32.3581C60.5286 32.3771 60.2278 32.4024 59.9428 32.4309C59.6578 32.4594 59.4045 32.4942 59.1765 32.5354C58.9517 32.5734 58.7902 32.605 58.6921 32.624V45.5399H55.9563V30.683L55.9531 30.6798Z" fill="black"/>
<path d="M79.4888 45.8929C78.2539 45.8929 77.1678 45.6966 76.2369 45.304C75.3059 44.9113 74.5207 44.3635 73.8842 43.6574C73.2478 42.9513 72.7697 42.1122 72.4562 41.1433C72.1427 40.1712 71.9844 39.0978 71.9844 37.923C71.9844 36.7483 72.1554 35.6685 72.5005 34.687C72.8425 33.7054 73.3301 32.8599 73.9571 32.1412C74.584 31.4255 75.3535 30.8651 76.2654 30.4629C77.1773 30.0608 78.1937 29.8613 79.3115 29.8613C79.9986 29.8613 80.6825 29.9215 81.3697 30.0386C82.0568 30.1558 82.7122 30.3426 83.3423 30.5991L82.7249 32.9233C82.3132 32.7269 81.8383 32.5686 81.2968 32.4515C80.7554 32.3343 80.1854 32.2741 79.5775 32.2741C78.0481 32.2741 76.8765 32.7554 76.0627 33.7149C75.249 34.6775 74.8405 36.0802 74.8405 37.923C74.8405 38.7463 74.9323 39.5031 75.1191 40.187C75.3059 40.8741 75.6004 41.4631 76.0026 41.9539C76.4047 42.4447 76.9177 42.8215 77.5478 43.0875C78.1747 43.3535 78.941 43.4833 79.8434 43.4833C80.5685 43.4833 81.2272 43.4136 81.8161 43.2775C82.4051 43.1413 82.8642 42.9925 83.1998 42.8373L83.583 45.133C83.4247 45.2311 83.1998 45.323 82.9054 45.4116C82.6109 45.5003 82.2784 45.5794 81.9048 45.6459C81.5311 45.7156 81.1353 45.7726 80.7142 45.8233C80.2931 45.8708 79.8846 45.8961 79.492 45.8961L79.4888 45.8929Z" fill="black"/>
<path d="M87.8684 27.4726C87.3776 27.4726 86.9628 27.3111 86.6177 26.9881C86.2726 26.6651 86.1016 26.2282 86.1016 25.6804C86.1016 25.1326 86.2726 24.6956 86.6177 24.3726C86.9597 24.0497 87.3776 23.8882 87.8684 23.8882C88.3592 23.8882 88.774 24.0497 89.1192 24.3726C89.4611 24.6956 89.6353 25.1326 89.6353 25.6804C89.6353 26.2282 89.4643 26.6651 89.1192 26.9881C88.7772 27.3111 88.3592 27.4726 87.8684 27.4726ZM89.2522 45.537H86.5164V30.2369H89.2522V45.537Z" fill="black"/>
<path d="M98.9024 29.8579C100.001 29.8579 100.926 30.0004 101.683 30.2853C102.436 30.5703 103.044 30.9725 103.506 31.4918C103.965 32.011 104.295 32.6285 104.491 33.3441C104.687 34.0597 104.786 34.8482 104.786 35.7126V45.2752C104.551 45.3132 104.222 45.367 103.801 45.4367C103.38 45.5063 102.902 45.5697 102.373 45.6267C101.844 45.6868 101.271 45.7407 100.65 45.7882C100.033 45.8356 99.4185 45.861 98.8106 45.861C97.9461 45.861 97.1514 45.7723 96.4263 45.595C95.7011 45.4177 95.0742 45.139 94.5422 44.7559C94.0103 44.3728 93.6018 43.8693 93.3073 43.2392C93.0128 42.6122 92.8672 41.8555 92.8672 40.9752C92.8672 40.0949 93.0382 39.4046 93.3833 38.7967C93.7253 38.1887 94.1939 37.6979 94.7797 37.3243C95.3687 36.9507 96.0558 36.6784 96.8379 36.501C97.6232 36.3237 98.4464 36.2351 99.3077 36.2351C99.5832 36.2351 99.8682 36.2509 100.159 36.2794C100.454 36.3079 100.733 36.349 100.999 36.3965C101.265 36.4472 101.493 36.4884 101.689 36.5295C101.885 36.5675 102.021 36.5992 102.1 36.6182V35.8519C102.1 35.4023 102.05 34.9558 101.955 34.5125C101.857 34.0724 101.679 33.6798 101.426 33.3346C101.17 32.9926 100.824 32.7172 100.381 32.5113C99.9378 32.3055 99.3647 32.201 98.6586 32.201C97.7561 32.201 96.9677 32.2644 96.2901 32.391C95.6125 32.5177 95.109 32.6507 94.7765 32.7868L94.4536 30.5228C94.8082 30.3645 95.394 30.2125 96.2173 30.0669C97.0405 29.9212 97.9335 29.8452 98.8961 29.8452L98.9024 29.8579ZM99.1367 43.5685C99.7827 43.5685 100.359 43.5527 100.859 43.5242C101.36 43.4957 101.774 43.4418 102.11 43.3627V38.803C101.914 38.7049 101.594 38.6225 101.154 38.5529C100.71 38.4832 100.178 38.4516 99.5483 38.4516C99.1367 38.4516 98.6997 38.4801 98.2406 38.5402C97.7815 38.6004 97.3572 38.7207 96.9772 38.9075C96.5941 39.0943 96.2743 39.3477 96.021 39.6738C95.7645 39.9968 95.6378 40.4242 95.6378 40.953C95.6378 41.9346 95.9513 42.6154 96.5782 42.9985C97.2052 43.3817 98.0601 43.5717 99.1367 43.5717V43.5685Z" fill="black"/>
<path d="M113.914 45.8326C112.226 45.7946 111.032 45.4305 110.326 44.7434C109.62 44.0563 109.266 42.9892 109.266 41.5358V23.1769L112.001 22.7051V41.0925C112.001 41.5421 112.039 41.9158 112.119 42.2102C112.198 42.5047 112.324 42.739 112.502 42.9163C112.679 43.0937 112.913 43.2267 113.208 43.3122C113.502 43.4008 113.863 43.4736 114.297 43.5338L113.914 45.8295V45.8326Z" fill="black"/>
<path d="M124.312 45.5375V25.1489H136.611V27.5902H127.165V33.7394H135.55V36.1522H127.165V45.5375H124.312Z" fill="black"/>
<path d="M141.29 27.4726C140.8 27.4726 140.385 27.3111 140.04 26.9881C139.694 26.6651 139.523 26.2282 139.523 25.6804C139.523 25.1326 139.694 24.6956 140.04 24.3726C140.382 24.0497 140.8 23.8882 141.29 23.8882C141.781 23.8882 142.196 24.0497 142.541 24.3726C142.883 24.6956 143.057 25.1326 143.057 25.6804C143.057 26.2282 142.886 26.6651 142.541 26.9881C142.199 27.3111 141.781 27.4726 141.29 27.4726ZM142.674 45.537H139.938V30.2369H142.674V45.537Z" fill="black"/>
<path d="M160.977 30.6798C161.604 30.5215 162.436 30.3569 163.478 30.1796C164.517 30.0022 165.714 29.9136 167.069 29.9136C168.285 29.9136 169.295 30.0846 170.099 30.4297C170.903 30.7717 171.546 31.253 172.027 31.8704C172.509 32.4879 172.847 33.2288 173.044 34.0933C173.24 34.9577 173.338 35.9076 173.338 36.9462V45.5367H170.602V37.5352C170.602 36.5947 170.539 35.7905 170.412 35.1223C170.286 34.4574 170.074 33.9159 169.779 33.5043C169.485 33.0927 169.092 32.7919 168.601 32.6082C168.11 32.4214 167.503 32.3296 166.777 32.3296C166.483 32.3296 166.179 32.3391 165.866 32.3581C165.552 32.3771 165.251 32.4024 164.966 32.4309C164.681 32.4594 164.428 32.4942 164.2 32.5354C163.975 32.5734 163.814 32.605 163.716 32.624V45.5399H160.98V30.683L160.977 30.6798Z" fill="black"/>
<path d="M177.008 37.9196C177.008 36.5676 177.204 35.3833 177.597 34.3732C177.989 33.3631 178.509 32.524 179.155 31.8591C179.801 31.1941 180.548 30.6938 181.39 30.3582C182.232 30.0257 183.097 29.8579 183.98 29.8579C186.038 29.8579 187.619 30.5007 188.717 31.7863C189.816 33.0718 190.364 35.0287 190.364 37.6568V38.1128C190.364 38.2996 190.354 38.4706 190.335 38.6289H179.861C179.978 40.2184 180.44 41.4248 181.244 42.2481C182.049 43.0714 183.303 43.483 185.009 43.483C185.972 43.483 186.779 43.4007 187.438 43.2329C188.093 43.0651 188.591 42.9036 188.923 42.7484L189.306 45.0441C188.974 45.2214 188.388 45.4082 187.555 45.6014C186.722 45.7977 185.776 45.8958 184.715 45.8958C183.382 45.8958 182.229 45.6932 181.257 45.291C180.285 44.8889 179.487 44.3348 178.86 43.6287C178.233 42.9226 177.768 42.0835 177.464 41.1145C177.16 40.1424 177.008 39.0785 177.008 37.9228V37.9196ZM187.511 36.4187C187.53 35.1838 187.223 34.1674 186.583 33.3726C185.947 32.5779 185.07 32.1821 183.949 32.1821C183.322 32.1821 182.768 32.3056 182.286 32.5494C181.805 32.7963 181.4 33.113 181.064 33.5056C180.732 33.8983 180.472 34.3479 180.285 34.8577C180.098 35.3675 179.975 35.8868 179.918 36.4156H187.508L187.511 36.4187Z" fill="black"/>
<path d="M197.863 43.5688C198.981 43.5688 199.811 43.4231 200.349 43.1286C200.887 42.8342 201.157 42.3624 201.157 41.7164C201.157 41.0705 200.891 40.5195 200.362 40.1269C199.833 39.7342 198.959 39.2941 197.743 38.8033C197.154 38.569 196.591 38.3283 196.052 38.0814C195.514 37.8375 195.045 37.5462 194.656 37.2138C194.263 36.8813 193.95 36.4792 193.715 36.0074C193.481 35.5356 193.364 34.9593 193.364 34.2722C193.364 32.9201 193.864 31.8435 194.865 31.0519C195.865 30.2571 197.227 29.8613 198.956 29.8613C199.387 29.8613 199.817 29.8867 200.251 29.9342C200.682 29.9848 201.084 30.0418 201.457 30.1115C201.831 30.1811 202.16 30.254 202.442 30.3331C202.727 30.4123 202.946 30.4788 203.104 30.5389L202.604 32.8916C202.309 32.7333 201.85 32.5718 201.22 32.4071C200.593 32.2393 199.836 32.157 198.956 32.157C198.19 32.157 197.525 32.309 196.955 32.6129C196.385 32.9169 196.103 33.3919 196.103 34.041C196.103 34.3735 196.166 34.668 196.293 34.9244C196.42 35.1809 196.616 35.4089 196.882 35.6147C197.148 35.8205 197.474 36.0105 197.867 36.1878C198.259 36.3652 198.728 36.552 199.279 36.7451C200.004 37.0206 200.65 37.2898 201.22 37.5557C201.79 37.8217 202.274 38.1289 202.676 38.4835C203.079 38.8381 203.386 39.2624 203.604 39.7627C203.819 40.263 203.927 40.8773 203.927 41.6024C203.927 43.0146 203.402 44.0849 202.353 44.81C201.305 45.5351 199.808 45.8993 197.867 45.8993C196.515 45.8993 195.454 45.7853 194.691 45.5604C193.924 45.3356 193.405 45.1646 193.133 45.0443L193.633 42.6917C193.947 42.8088 194.447 42.9861 195.134 43.2205C195.821 43.4548 196.733 43.5751 197.87 43.5751L197.863 43.5688Z" fill="black"/>
<path d="M210.996 43.5688C212.114 43.5688 212.944 43.4231 213.482 43.1286C214.02 42.8342 214.289 42.3624 214.289 41.7164C214.289 41.0705 214.023 40.5195 213.495 40.1269C212.966 39.7342 212.092 39.2941 210.876 38.8033C210.287 38.569 209.723 38.3283 209.185 38.0814C208.647 37.8375 208.178 37.5462 207.789 37.2138C207.396 36.8813 207.083 36.4792 206.848 36.0074C206.614 35.5356 206.497 34.9593 206.497 34.2722C206.497 32.9201 206.997 31.8435 207.998 31.0519C208.998 30.2571 210.36 29.8613 212.089 29.8613C212.519 29.8613 212.95 29.8867 213.384 29.9342C213.814 29.9848 214.217 30.0418 214.59 30.1115C214.964 30.1811 215.293 30.254 215.575 30.3331C215.86 30.4123 216.078 30.4788 216.237 30.5389L215.736 32.8916C215.442 32.7333 214.983 32.5718 214.353 32.4071C213.726 32.2393 212.969 32.157 212.089 32.157C211.322 32.157 210.657 32.309 210.087 32.6129C209.518 32.9169 209.236 33.3919 209.236 34.041C209.236 34.3735 209.299 34.668 209.426 34.9244C209.552 35.1809 209.749 35.4089 210.015 35.6147C210.281 35.8205 210.607 36.0105 210.999 36.1878C211.392 36.3652 211.861 36.552 212.412 36.7451C213.137 37.0206 213.783 37.2898 214.353 37.5557C214.923 37.8217 215.407 38.1289 215.809 38.4835C216.211 38.8381 216.519 39.2624 216.737 39.7627C216.952 40.263 217.06 40.8773 217.06 41.6024C217.06 43.0146 216.534 44.0849 215.486 44.81C214.438 45.5351 212.94 45.8993 210.999 45.8993C209.647 45.8993 208.587 45.7853 207.824 45.5604C207.057 45.3356 206.538 45.1646 206.266 45.0443L206.766 42.6917C207.079 42.8088 207.58 42.9861 208.267 43.2205C208.954 43.4548 209.866 43.5751 211.003 43.5751L210.996 43.5688Z" fill="black"/>
<path d="M241.144 25.1489V27.6187H234.729V45.5344H231.876V27.6187H225.461V25.1489H241.141H241.144Z" fill="black"/>
<path d="M241.5 37.9196C241.5 36.5676 241.696 35.3833 242.089 34.3732C242.482 33.3631 243.001 32.524 243.647 31.8591C244.293 31.1941 245.04 30.6938 245.882 30.3582C246.725 30.0257 247.589 29.8579 248.472 29.8579C250.531 29.8579 252.111 30.5007 253.209 31.7863C254.308 33.0718 254.856 35.0287 254.856 37.6568V38.1128C254.856 38.2996 254.846 38.4706 254.827 38.6289H244.353C244.47 40.2184 244.932 41.4248 245.737 42.2481C246.541 43.0714 247.795 43.483 249.502 43.483C250.464 43.483 251.272 43.4007 251.93 43.2329C252.586 43.0651 253.083 42.9036 253.415 42.7484L253.798 45.0441C253.466 45.2214 252.88 45.4082 252.047 45.6014C251.215 45.7977 250.268 45.8958 249.207 45.8958C247.874 45.8958 246.721 45.6932 245.749 45.291C244.777 44.8889 243.979 44.3348 243.352 43.6287C242.725 42.9226 242.26 42.0835 241.956 41.1145C241.652 40.1424 241.5 39.0785 241.5 37.9228V37.9196ZM252.003 36.4187C252.022 35.1838 251.715 34.1674 251.075 33.3726C250.439 32.5779 249.562 32.1821 248.441 32.1821C247.814 32.1821 247.26 32.3056 246.778 32.5494C246.297 32.7963 245.892 33.113 245.556 33.5056C245.224 33.8983 244.964 34.3479 244.777 34.8577C244.59 35.3675 244.467 35.8868 244.41 36.4156H252L252.003 36.4187Z" fill="black"/>
<path d="M262.363 43.5688C263.481 43.5688 264.311 43.4231 264.849 43.1286C265.387 42.8342 265.657 42.3624 265.657 41.7164C265.657 41.0705 265.391 40.5195 264.862 40.1269C264.333 39.7342 263.459 39.2941 262.243 38.8033C261.654 38.569 261.091 38.3283 260.552 38.0814C260.014 37.8375 259.545 37.5462 259.156 37.2138C258.763 36.8813 258.45 36.4792 258.215 36.0074C257.981 35.5356 257.864 34.9593 257.864 34.2722C257.864 32.9201 258.364 31.8435 259.365 31.0519C260.365 30.2571 261.727 29.8613 263.456 29.8613C263.887 29.8613 264.317 29.8867 264.751 29.9342C265.182 29.9848 265.584 30.0418 265.957 30.1115C266.331 30.1811 266.66 30.254 266.942 30.3331C267.227 30.4123 267.446 30.4788 267.604 30.5389L267.104 32.8916C266.809 32.7333 266.35 32.5718 265.72 32.4071C265.093 32.2393 264.336 32.157 263.456 32.157C262.69 32.157 262.025 32.309 261.455 32.6129C260.885 32.9169 260.603 33.3919 260.603 34.041C260.603 34.3735 260.666 34.668 260.793 34.9244C260.92 35.1809 261.116 35.4089 261.382 35.6147C261.648 35.8205 261.974 36.0105 262.367 36.1878C262.759 36.3652 263.228 36.552 263.779 36.7451C264.504 37.0206 265.15 37.2898 265.72 37.5557C266.29 37.8217 266.774 38.1289 267.176 38.4835C267.579 38.8381 267.886 39.2624 268.104 39.7627C268.319 40.263 268.427 40.8773 268.427 41.6024C268.427 43.0146 267.902 44.0849 266.853 44.81C265.805 45.5351 264.308 45.8993 262.367 45.8993C261.015 45.8993 259.954 45.7853 259.191 45.5604C258.424 45.3356 257.905 45.1646 257.633 45.0443L258.133 42.6917C258.447 42.8088 258.947 42.9861 259.634 43.2205C260.321 43.4548 261.233 43.5751 262.37 43.5751L262.363 43.5688Z" fill="black"/>
<path d="M274.47 30.2407H280.265V32.5363H274.47V39.5974C274.47 40.3637 274.53 40.9938 274.647 41.4941C274.765 41.9944 274.942 42.387 275.176 42.672C275.411 42.957 275.705 43.1565 276.06 43.2768C276.411 43.394 276.826 43.4541 277.295 43.4541C278.118 43.4541 278.78 43.3623 279.28 43.1755C279.78 42.9887 280.129 42.8557 280.325 42.7797L280.854 45.0437C280.578 45.1798 280.097 45.354 279.413 45.5598C278.726 45.7656 277.941 45.8701 277.06 45.8701C276.022 45.8701 275.164 45.7371 274.486 45.4743C273.808 45.2083 273.264 44.8125 272.852 44.2837C272.44 43.7549 272.149 43.1027 271.985 42.3269C271.817 41.5511 271.734 40.655 271.734 39.6354V25.985L274.47 25.5132V30.2502V30.2407Z" fill="black"/>
<path d="M0.640625 45.5375V25.1489H12.939V27.5902H3.49357V33.7394H11.8783V36.1522H3.49357V45.5375H0.640625Z" fill="url(#paint1_linear_6663_10430)"/>
<path d="M17.6106 27.4726C17.1198 27.4726 16.705 27.3111 16.3599 26.9881C16.0147 26.6651 15.8438 26.2282 15.8438 25.6804C15.8438 25.1326 16.0147 24.6956 16.3599 24.3726C16.7018 24.0497 17.1198 23.8882 17.6106 23.8882C18.1014 23.8882 18.5162 24.0497 18.8614 24.3726C19.2033 24.6956 19.3775 25.1326 19.3775 25.6804C19.3775 26.2282 19.2065 26.6651 18.8614 26.9881C18.5194 27.3111 18.1014 27.4726 17.6106 27.4726ZM18.9912 45.537H16.2554V30.2369H18.9912V45.537Z" fill="url(#paint2_linear_6663_10430)"/>
<path d="M23.7031 30.6798C24.3301 30.5215 25.1628 30.3569 26.2046 30.1796C27.2432 30.0022 28.4401 29.9136 29.7953 29.9136C31.0112 29.9136 32.0213 30.0846 32.8256 30.4297C33.6299 30.7717 34.2726 31.253 34.7539 31.8704C35.2352 32.4879 35.574 33.2288 35.7704 34.0933C35.9667 34.9577 36.0648 35.9076 36.0648 36.9462V45.5367H33.329V37.5352C33.329 36.5947 33.2657 35.7905 33.1391 35.1223C33.0124 34.4574 32.8003 33.9159 32.5058 33.5043C32.2113 33.0927 31.8187 32.7919 31.3279 32.6082C30.8371 32.4214 30.2291 32.3296 29.504 32.3296C29.2095 32.3296 28.9056 32.3391 28.5921 32.3581C28.2786 32.3771 27.9778 32.4024 27.6928 32.4309C27.4078 32.4594 27.1545 32.4942 26.9265 32.5354C26.7017 32.5734 26.5402 32.605 26.4421 32.624V45.5399H23.7063V30.683L23.7031 30.6798Z" fill="url(#paint3_linear_6663_10430)"/>
<path d="M45.5274 29.8579C46.6261 29.8579 47.5507 30.0004 48.3075 30.2853C49.0611 30.5703 49.6691 30.9725 50.1314 31.4918C50.5905 32.011 50.9198 32.6285 51.1161 33.3441C51.3124 34.0597 51.4106 34.8482 51.4106 35.7126V45.2752C51.1763 45.3132 50.847 45.367 50.4258 45.4367C50.0047 45.5063 49.5266 45.5697 48.9978 45.6267C48.469 45.6868 47.8959 45.7407 47.2753 45.7882C46.6578 45.8356 46.0435 45.861 45.4356 45.861C44.5711 45.861 43.7764 45.7723 43.0512 45.595C42.3261 45.4177 41.6992 45.139 41.1672 44.7559C40.6353 44.3728 40.2268 43.8693 39.9323 43.2392C39.6378 42.6122 39.4922 41.8555 39.4922 40.9752C39.4922 40.0949 39.6632 39.4046 40.0083 38.7967C40.3503 38.1887 40.8189 37.6979 41.4047 37.3243C41.9937 36.9507 42.6808 36.6784 43.4629 36.501C44.2482 36.3237 45.0714 36.2351 45.9327 36.2351C46.2082 36.2351 46.4931 36.2509 46.7845 36.2794C47.0789 36.3079 47.3576 36.349 47.6236 36.3965C47.8895 36.4472 48.1175 36.4884 48.3138 36.5295C48.5102 36.5675 48.6463 36.5992 48.7255 36.6182V35.8519C48.7255 35.4023 48.6748 34.9558 48.5798 34.5125C48.4817 34.0724 48.3043 33.6798 48.051 33.3346C47.7945 32.9926 47.4494 32.7172 47.0061 32.5113C46.5628 32.3055 45.9897 32.201 45.2836 32.201C44.3811 32.201 43.5927 32.2644 42.9151 32.391C42.2375 32.5177 41.734 32.6507 41.4015 32.7868L41.0786 30.5228C41.4332 30.3645 42.019 30.2125 42.8423 30.0669C43.6655 29.9212 44.5585 29.8452 45.5211 29.8452L45.5274 29.8579ZM45.7649 43.5685C46.4108 43.5685 46.9871 43.5527 47.4874 43.5242C47.9877 43.4957 48.4025 43.4418 48.7381 43.3627V38.803C48.5418 38.7049 48.222 38.6225 47.7819 38.5529C47.3386 38.4832 46.8066 38.4516 46.1765 38.4516C45.7649 38.4516 45.3279 38.4801 44.8688 38.5402C44.4096 38.6004 43.9853 38.7207 43.6054 38.9075C43.2222 39.0943 42.9024 39.3477 42.6491 39.6738C42.3926 39.9968 42.266 40.4242 42.266 40.953C42.266 41.9346 42.5794 42.6154 43.2064 42.9985C43.8334 43.3817 44.6883 43.5717 45.7649 43.5717V43.5685Z" fill="url(#paint4_linear_6663_10430)"/>
<path d="M55.9531 30.6798C56.5801 30.5215 57.4128 30.3569 58.4546 30.1796C59.4932 30.0022 60.6901 29.9136 62.0453 29.9136C63.2612 29.9136 64.2713 30.0846 65.0756 30.4297C65.8799 30.7717 66.5226 31.253 67.0039 31.8704C67.4852 32.4879 67.824 33.2288 68.0204 34.0933C68.2167 34.9577 68.3148 35.9076 68.3148 36.9462V45.5367H65.5791V37.5352C65.5791 36.5947 65.5157 35.7905 65.3891 35.1223C65.2624 34.4574 65.0503 33.9159 64.7558 33.5043C64.4613 33.0927 64.0687 32.7919 63.5779 32.6082C63.0871 32.4214 62.4791 32.3296 61.754 32.3296C61.4595 32.3296 61.1556 32.3391 60.8421 32.3581C60.5286 32.3771 60.2278 32.4024 59.9428 32.4309C59.6578 32.4594 59.4045 32.4942 59.1765 32.5354C58.9517 32.5734 58.7902 32.605 58.6921 32.624V45.5399H55.9563V30.683L55.9531 30.6798Z" fill="url(#paint5_linear_6663_10430)"/>
<path d="M79.4888 45.8929C78.2539 45.8929 77.1678 45.6966 76.2369 45.304C75.3059 44.9113 74.5207 44.3635 73.8842 43.6574C73.2478 42.9513 72.7697 42.1122 72.4562 41.1433C72.1427 40.1712 71.9844 39.0978 71.9844 37.923C71.9844 36.7483 72.1554 35.6685 72.5005 34.687C72.8425 33.7054 73.3301 32.8599 73.9571 32.1412C74.584 31.4255 75.3535 30.8651 76.2654 30.4629C77.1773 30.0608 78.1937 29.8613 79.3115 29.8613C79.9986 29.8613 80.6825 29.9215 81.3697 30.0386C82.0568 30.1558 82.7122 30.3426 83.3423 30.5991L82.7249 32.9233C82.3132 32.7269 81.8383 32.5686 81.2968 32.4515C80.7554 32.3343 80.1854 32.2741 79.5775 32.2741C78.0481 32.2741 76.8765 32.7554 76.0627 33.7149C75.249 34.6775 74.8405 36.0802 74.8405 37.923C74.8405 38.7463 74.9323 39.5031 75.1191 40.187C75.3059 40.8741 75.6004 41.4631 76.0026 41.9539C76.4047 42.4447 76.9177 42.8215 77.5478 43.0875C78.1747 43.3535 78.941 43.4833 79.8434 43.4833C80.5685 43.4833 81.2272 43.4136 81.8161 43.2775C82.4051 43.1413 82.8642 42.9925 83.1998 42.8373L83.583 45.133C83.4247 45.2311 83.1998 45.323 82.9054 45.4116C82.6109 45.5003 82.2784 45.5794 81.9048 45.6459C81.5311 45.7156 81.1353 45.7726 80.7142 45.8233C80.2931 45.8708 79.8846 45.8961 79.492 45.8961L79.4888 45.8929Z" fill="url(#paint6_linear_6663_10430)"/>
<path d="M87.8684 27.4726C87.3776 27.4726 86.9628 27.3111 86.6177 26.9881C86.2726 26.6651 86.1016 26.2282 86.1016 25.6804C86.1016 25.1326 86.2726 24.6956 86.6177 24.3726C86.9597 24.0497 87.3776 23.8882 87.8684 23.8882C88.3592 23.8882 88.774 24.0497 89.1192 24.3726C89.4611 24.6956 89.6353 25.1326 89.6353 25.6804C89.6353 26.2282 89.4643 26.6651 89.1192 26.9881C88.7772 27.3111 88.3592 27.4726 87.8684 27.4726ZM89.2522 45.537H86.5164V30.2369H89.2522V45.537Z" fill="url(#paint7_linear_6663_10430)"/>
<path d="M98.9024 29.8579C100.001 29.8579 100.926 30.0004 101.683 30.2853C102.436 30.5703 103.044 30.9725 103.506 31.4918C103.965 32.011 104.295 32.6285 104.491 33.3441C104.687 34.0597 104.786 34.8482 104.786 35.7126V45.2752C104.551 45.3132 104.222 45.367 103.801 45.4367C103.38 45.5063 102.902 45.5697 102.373 45.6267C101.844 45.6868 101.271 45.7407 100.65 45.7882C100.033 45.8356 99.4185 45.861 98.8106 45.861C97.9461 45.861 97.1514 45.7723 96.4263 45.595C95.7011 45.4177 95.0742 45.139 94.5422 44.7559C94.0103 44.3728 93.6018 43.8693 93.3073 43.2392C93.0128 42.6122 92.8672 41.8555 92.8672 40.9752C92.8672 40.0949 93.0382 39.4046 93.3833 38.7967C93.7253 38.1887 94.1939 37.6979 94.7797 37.3243C95.3687 36.9507 96.0558 36.6784 96.8379 36.501C97.6232 36.3237 98.4464 36.2351 99.3077 36.2351C99.5832 36.2351 99.8682 36.2509 100.159 36.2794C100.454 36.3079 100.733 36.349 100.999 36.3965C101.265 36.4472 101.493 36.4884 101.689 36.5295C101.885 36.5675 102.021 36.5992 102.1 36.6182V35.8519C102.1 35.4023 102.05 34.9558 101.955 34.5125C101.857 34.0724 101.679 33.6798 101.426 33.3346C101.17 32.9926 100.824 32.7172 100.381 32.5113C99.9378 32.3055 99.3647 32.201 98.6586 32.201C97.7561 32.201 96.9677 32.2644 96.2901 32.391C95.6125 32.5177 95.109 32.6507 94.7765 32.7868L94.4536 30.5228C94.8082 30.3645 95.394 30.2125 96.2173 30.0669C97.0405 29.9212 97.9335 29.8452 98.8961 29.8452L98.9024 29.8579ZM99.1367 43.5685C99.7827 43.5685 100.359 43.5527 100.859 43.5242C101.36 43.4957 101.774 43.4418 102.11 43.3627V38.803C101.914 38.7049 101.594 38.6225 101.154 38.5529C100.71 38.4832 100.178 38.4516 99.5483 38.4516C99.1367 38.4516 98.6997 38.4801 98.2406 38.5402C97.7815 38.6004 97.3572 38.7207 96.9772 38.9075C96.5941 39.0943 96.2743 39.3477 96.021 39.6738C95.7645 39.9968 95.6378 40.4242 95.6378 40.953C95.6378 41.9346 95.9513 42.6154 96.5782 42.9985C97.2052 43.3817 98.0601 43.5717 99.1367 43.5717V43.5685Z" fill="url(#paint8_linear_6663_10430)"/>
<path d="M113.914 45.8326C112.226 45.7946 111.032 45.4305 110.326 44.7434C109.62 44.0563 109.266 42.9892 109.266 41.5358V23.1769L112.001 22.7051V41.0925C112.001 41.5421 112.039 41.9158 112.119 42.2102C112.198 42.5047 112.324 42.739 112.502 42.9163C112.679 43.0937 112.913 43.2267 113.208 43.3122C113.502 43.4008 113.863 43.4736 114.297 43.5338L113.914 45.8295V45.8326Z" fill="url(#paint9_linear_6663_10430)"/>
<path d="M124.312 45.5375V25.1489H136.611V27.5902H127.165V33.7394H135.55V36.1522H127.165V45.5375H124.312Z" fill="url(#paint10_linear_6663_10430)"/>
<path d="M141.29 27.4726C140.8 27.4726 140.385 27.3111 140.04 26.9881C139.694 26.6651 139.523 26.2282 139.523 25.6804C139.523 25.1326 139.694 24.6956 140.04 24.3726C140.382 24.0497 140.8 23.8882 141.29 23.8882C141.781 23.8882 142.196 24.0497 142.541 24.3726C142.883 24.6956 143.057 25.1326 143.057 25.6804C143.057 26.2282 142.886 26.6651 142.541 26.9881C142.199 27.3111 141.781 27.4726 141.29 27.4726ZM142.674 45.537H139.938V30.2369H142.674V45.537Z" fill="url(#paint11_linear_6663_10430)"/>
<path d="M160.977 30.6798C161.604 30.5215 162.436 30.3569 163.478 30.1796C164.517 30.0022 165.714 29.9136 167.069 29.9136C168.285 29.9136 169.295 30.0846 170.099 30.4297C170.903 30.7717 171.546 31.253 172.027 31.8704C172.509 32.4879 172.847 33.2288 173.044 34.0933C173.24 34.9577 173.338 35.9076 173.338 36.9462V45.5367H170.602V37.5352C170.602 36.5947 170.539 35.7905 170.412 35.1223C170.286 34.4574 170.074 33.9159 169.779 33.5043C169.485 33.0927 169.092 32.7919 168.601 32.6082C168.11 32.4214 167.503 32.3296 166.777 32.3296C166.483 32.3296 166.179 32.3391 165.866 32.3581C165.552 32.3771 165.251 32.4024 164.966 32.4309C164.681 32.4594 164.428 32.4942 164.2 32.5354C163.975 32.5734 163.814 32.605 163.716 32.624V45.5399H160.98V30.683L160.977 30.6798Z" fill="url(#paint12_linear_6663_10430)"/>
<path d="M177.008 37.9196C177.008 36.5676 177.204 35.3833 177.597 34.3732C177.989 33.3631 178.509 32.524 179.155 31.8591C179.801 31.1941 180.548 30.6938 181.39 30.3582C182.232 30.0257 183.097 29.8579 183.98 29.8579C186.038 29.8579 187.619 30.5007 188.717 31.7863C189.816 33.0718 190.364 35.0287 190.364 37.6568V38.1128C190.364 38.2996 190.354 38.4706 190.335 38.6289H179.861C179.978 40.2184 180.44 41.4248 181.244 42.2481C182.049 43.0714 183.303 43.483 185.009 43.483C185.972 43.483 186.779 43.4007 187.438 43.2329C188.093 43.0651 188.591 42.9036 188.923 42.7484L189.306 45.0441C188.974 45.2214 188.388 45.4082 187.555 45.6014C186.722 45.7977 185.776 45.8958 184.715 45.8958C183.382 45.8958 182.229 45.6932 181.257 45.291C180.285 44.8889 179.487 44.3348 178.86 43.6287C178.233 42.9226 177.768 42.0835 177.464 41.1145C177.16 40.1424 177.008 39.0785 177.008 37.9228V37.9196ZM187.511 36.4187C187.53 35.1838 187.223 34.1674 186.583 33.3726C185.947 32.5779 185.07 32.1821 183.949 32.1821C183.322 32.1821 182.768 32.3056 182.286 32.5494C181.805 32.7963 181.4 33.113 181.064 33.5056C180.732 33.8983 180.472 34.3479 180.285 34.8577C180.098 35.3675 179.975 35.8868 179.918 36.4156H187.508L187.511 36.4187Z" fill="url(#paint13_linear_6663_10430)"/>
<path d="M197.863 43.5688C198.981 43.5688 199.811 43.4231 200.349 43.1286C200.887 42.8342 201.157 42.3624 201.157 41.7164C201.157 41.0705 200.891 40.5195 200.362 40.1269C199.833 39.7342 198.959 39.2941 197.743 38.8033C197.154 38.569 196.591 38.3283 196.052 38.0814C195.514 37.8375 195.045 37.5462 194.656 37.2138C194.263 36.8813 193.95 36.4792 193.715 36.0074C193.481 35.5356 193.364 34.9593 193.364 34.2722C193.364 32.9201 193.864 31.8435 194.865 31.0519C195.865 30.2571 197.227 29.8613 198.956 29.8613C199.387 29.8613 199.817 29.8867 200.251 29.9342C200.682 29.9848 201.084 30.0418 201.457 30.1115C201.831 30.1811 202.16 30.254 202.442 30.3331C202.727 30.4123 202.946 30.4788 203.104 30.5389L202.604 32.8916C202.309 32.7333 201.85 32.5718 201.22 32.4071C200.593 32.2393 199.836 32.157 198.956 32.157C198.19 32.157 197.525 32.309 196.955 32.6129C196.385 32.9169 196.103 33.3919 196.103 34.041C196.103 34.3735 196.166 34.668 196.293 34.9244C196.42 35.1809 196.616 35.4089 196.882 35.6147C197.148 35.8205 197.474 36.0105 197.867 36.1878C198.259 36.3652 198.728 36.552 199.279 36.7451C200.004 37.0206 200.65 37.2898 201.22 37.5557C201.79 37.8217 202.274 38.1289 202.676 38.4835C203.079 38.8381 203.386 39.2624 203.604 39.7627C203.819 40.263 203.927 40.8773 203.927 41.6024C203.927 43.0146 203.402 44.0849 202.353 44.81C201.305 45.5351 199.808 45.8993 197.867 45.8993C196.515 45.8993 195.454 45.7853 194.691 45.5604C193.924 45.3356 193.405 45.1646 193.133 45.0443L193.633 42.6917C193.947 42.8088 194.447 42.9861 195.134 43.2205C195.821 43.4548 196.733 43.5751 197.87 43.5751L197.863 43.5688Z" fill="url(#paint14_linear_6663_10430)"/>
<path d="M210.996 43.5688C212.114 43.5688 212.944 43.4231 213.482 43.1286C214.02 42.8342 214.289 42.3624 214.289 41.7164C214.289 41.0705 214.023 40.5195 213.495 40.1269C212.966 39.7342 212.092 39.2941 210.876 38.8033C210.287 38.569 209.723 38.3283 209.185 38.0814C208.647 37.8375 208.178 37.5462 207.789 37.2138C207.396 36.8813 207.083 36.4792 206.848 36.0074C206.614 35.5356 206.497 34.9593 206.497 34.2722C206.497 32.9201 206.997 31.8435 207.998 31.0519C208.998 30.2571 210.36 29.8613 212.089 29.8613C212.519 29.8613 212.95 29.8867 213.384 29.9342C213.814 29.9848 214.217 30.0418 214.59 30.1115C214.964 30.1811 215.293 30.254 215.575 30.3331C215.86 30.4123 216.078 30.4788 216.237 30.5389L215.736 32.8916C215.442 32.7333 214.983 32.5718 214.353 32.4071C213.726 32.2393 212.969 32.157 212.089 32.157C211.322 32.157 210.657 32.309 210.087 32.6129C209.518 32.9169 209.236 33.3919 209.236 34.041C209.236 34.3735 209.299 34.668 209.426 34.9244C209.552 35.1809 209.749 35.4089 210.015 35.6147C210.281 35.8205 210.607 36.0105 210.999 36.1878C211.392 36.3652 211.861 36.552 212.412 36.7451C213.137 37.0206 213.783 37.2898 214.353 37.5557C214.923 37.8217 215.407 38.1289 215.809 38.4835C216.211 38.8381 216.519 39.2624 216.737 39.7627C216.952 40.263 217.06 40.8773 217.06 41.6024C217.06 43.0146 216.534 44.0849 215.486 44.81C214.438 45.5351 212.94 45.8993 210.999 45.8993C209.647 45.8993 208.587 45.7853 207.824 45.5604C207.057 45.3356 206.538 45.1646 206.266 45.0443L206.766 42.6917C207.079 42.8088 207.58 42.9861 208.267 43.2205C208.954 43.4548 209.866 43.5751 211.003 43.5751L210.996 43.5688Z" fill="url(#paint15_linear_6663_10430)"/>
<path d="M241.144 25.1489V27.6187H234.729V45.5344H231.876V27.6187H225.461V25.1489H241.141H241.144Z" fill="url(#paint16_linear_6663_10430)"/>
<path d="M241.5 37.9196C241.5 36.5676 241.696 35.3833 242.089 34.3732C242.482 33.3631 243.001 32.524 243.647 31.8591C244.293 31.1941 245.04 30.6938 245.882 30.3582C246.725 30.0257 247.589 29.8579 248.472 29.8579C250.531 29.8579 252.111 30.5007 253.209 31.7863C254.308 33.0718 254.856 35.0287 254.856 37.6568V38.1128C254.856 38.2996 254.846 38.4706 254.827 38.6289H244.353C244.47 40.2184 244.932 41.4248 245.737 42.2481C246.541 43.0714 247.795 43.483 249.502 43.483C250.464 43.483 251.272 43.4007 251.93 43.2329C252.586 43.0651 253.083 42.9036 253.415 42.7484L253.798 45.0441C253.466 45.2214 252.88 45.4082 252.047 45.6014C251.215 45.7977 250.268 45.8958 249.207 45.8958C247.874 45.8958 246.721 45.6932 245.749 45.291C244.777 44.8889 243.979 44.3348 243.352 43.6287C242.725 42.9226 242.26 42.0835 241.956 41.1145C241.652 40.1424 241.5 39.0785 241.5 37.9228V37.9196ZM252.003 36.4187C252.022 35.1838 251.715 34.1674 251.075 33.3726C250.439 32.5779 249.562 32.1821 248.441 32.1821C247.814 32.1821 247.26 32.3056 246.778 32.5494C246.297 32.7963 245.892 33.113 245.556 33.5056C245.224 33.8983 244.964 34.3479 244.777 34.8577C244.59 35.3675 244.467 35.8868 244.41 36.4156H252L252.003 36.4187Z" fill="url(#paint17_linear_6663_10430)"/>
<path d="M262.363 43.5688C263.481 43.5688 264.311 43.4231 264.849 43.1286C265.387 42.8342 265.657 42.3624 265.657 41.7164C265.657 41.0705 265.391 40.5195 264.862 40.1269C264.333 39.7342 263.459 39.2941 262.243 38.8033C261.654 38.569 261.091 38.3283 260.552 38.0814C260.014 37.8375 259.545 37.5462 259.156 37.2138C258.763 36.8813 258.45 36.4792 258.215 36.0074C257.981 35.5356 257.864 34.9593 257.864 34.2722C257.864 32.9201 258.364 31.8435 259.365 31.0519C260.365 30.2571 261.727 29.8613 263.456 29.8613C263.887 29.8613 264.317 29.8867 264.751 29.9342C265.182 29.9848 265.584 30.0418 265.957 30.1115C266.331 30.1811 266.66 30.254 266.942 30.3331C267.227 30.4123 267.446 30.4788 267.604 30.5389L267.104 32.8916C266.809 32.7333 266.35 32.5718 265.72 32.4071C265.093 32.2393 264.336 32.157 263.456 32.157C262.69 32.157 262.025 32.309 261.455 32.6129C260.885 32.9169 260.603 33.3919 260.603 34.041C260.603 34.3735 260.666 34.668 260.793 34.9244C260.92 35.1809 261.116 35.4089 261.382 35.6147C261.648 35.8205 261.974 36.0105 262.367 36.1878C262.759 36.3652 263.228 36.552 263.779 36.7451C264.504 37.0206 265.15 37.2898 265.72 37.5557C266.29 37.8217 266.774 38.1289 267.176 38.4835C267.579 38.8381 267.886 39.2624 268.104 39.7627C268.319 40.263 268.427 40.8773 268.427 41.6024C268.427 43.0146 267.902 44.0849 266.853 44.81C265.805 45.5351 264.308 45.8993 262.367 45.8993C261.015 45.8993 259.954 45.7853 259.191 45.5604C258.424 45.3356 257.905 45.1646 257.633 45.0443L258.133 42.6917C258.447 42.8088 258.947 42.9861 259.634 43.2205C260.321 43.4548 261.233 43.5751 262.37 43.5751L262.363 43.5688Z" fill="url(#paint18_linear_6663_10430)"/>
<path d="M274.47 30.2407H280.265V32.5363H274.47V39.5974C274.47 40.3637 274.53 40.9938 274.647 41.4941C274.765 41.9944 274.942 42.387 275.176 42.672C275.411 42.957 275.705 43.1565 276.06 43.2768C276.411 43.394 276.826 43.4541 277.295 43.4541C278.118 43.4541 278.78 43.3623 279.28 43.1755C279.78 42.9887 280.129 42.8557 280.325 42.7797L280.854 45.0437C280.578 45.1798 280.097 45.354 279.413 45.5598C278.726 45.7656 277.941 45.8701 277.06 45.8701C276.022 45.8701 275.164 45.7371 274.486 45.4743C273.808 45.2083 273.264 44.8125 272.852 44.2837C272.44 43.7549 272.149 43.1027 271.985 42.3269C271.817 41.5511 271.734 40.655 271.734 39.6354V25.985L274.47 25.5132V30.2502V30.2407Z" fill="url(#paint19_linear_6663_10430)"/>
<defs>
<linearGradient id="paint0_linear_6663_10430" x1="71.6712" y1="36.5802" x2="216.275" y2="44.2905" gradientUnits="userSpaceOnUse">
<stop stop-color="#065097"/>
<stop offset="0.5" stop-color="#7264AC"/>
<stop offset="1" stop-color="#AC6FAA"/>
</linearGradient>
<linearGradient id="paint1_linear_6663_10430" x1="0.640625" y1="34.2999" x2="280.866" y2="34.2999" gradientUnits="userSpaceOnUse">
<stop stop-color="#065097"/>
<stop offset="0.5" stop-color="#7264AC"/>
<stop offset="1" stop-color="#AC6FAA"/>
</linearGradient>
<linearGradient id="paint2_linear_6663_10430" x1="0.635429" y1="34.2994" x2="280.861" y2="34.2994" gradientUnits="userSpaceOnUse">
<stop stop-color="#065097"/>
<stop offset="0.5" stop-color="#7264AC"/>
<stop offset="1" stop-color="#AC6FAA"/>
</linearGradient>
<linearGradient id="paint3_linear_6663_10430" x1="0.638907" y1="34.2991" x2="280.864" y2="34.2991" gradientUnits="userSpaceOnUse">
<stop stop-color="#065097"/>
<stop offset="0.5" stop-color="#7264AC"/>
<stop offset="1" stop-color="#AC6FAA"/>
</linearGradient>
<linearGradient id="paint4_linear_6663_10430" x1="0.633852" y1="34.3004" x2="280.859" y2="34.3004" gradientUnits="userSpaceOnUse">
<stop stop-color="#065097"/>
<stop offset="0.5" stop-color="#7264AC"/>
<stop offset="1" stop-color="#AC6FAA"/>
</linearGradient>
<linearGradient id="paint5_linear_6663_10430" x1="0.64524" y1="34.2991" x2="280.87" y2="34.2991" gradientUnits="userSpaceOnUse">
<stop stop-color="#065097"/>
<stop offset="0.5" stop-color="#7264AC"/>
<stop offset="1" stop-color="#AC6FAA"/>
</linearGradient>
<linearGradient id="paint6_linear_6663_10430" x1="0.641714" y1="34.3007" x2="280.867" y2="34.3007" gradientUnits="userSpaceOnUse">
<stop stop-color="#065097"/>
<stop offset="0.5" stop-color="#7264AC"/>
<stop offset="1" stop-color="#AC6FAA"/>
</linearGradient>
<linearGradient id="paint7_linear_6663_10430" x1="0.639792" y1="34.2994" x2="280.865" y2="34.2994" gradientUnits="userSpaceOnUse">
<stop stop-color="#065097"/>
<stop offset="0.5" stop-color="#7264AC"/>
<stop offset="1" stop-color="#AC6FAA"/>
</linearGradient>
<linearGradient id="paint8_linear_6663_10430" x1="0.638777" y1="34.3004" x2="280.864" y2="34.3004" gradientUnits="userSpaceOnUse">
<stop stop-color="#065097"/>
<stop offset="0.5" stop-color="#7264AC"/>
<stop offset="1" stop-color="#AC6FAA"/>
</linearGradient>
<linearGradient id="paint9_linear_6663_10430" x1="0.647752" y1="34.3005" x2="280.873" y2="34.3005" gradientUnits="userSpaceOnUse">
<stop stop-color="#065097"/>
<stop offset="0.5" stop-color="#7264AC"/>
<stop offset="1" stop-color="#AC6FAA"/>
</linearGradient>
<linearGradient id="paint10_linear_6663_10430" x1="0.632064" y1="34.2999" x2="280.857" y2="34.2999" gradientUnits="userSpaceOnUse">
<stop stop-color="#065097"/>
<stop offset="0.5" stop-color="#7264AC"/>
<stop offset="1" stop-color="#AC6FAA"/>
</linearGradient>
<linearGradient id="paint11_linear_6663_10430" x1="0.634613" y1="34.2994" x2="280.86" y2="34.2994" gradientUnits="userSpaceOnUse">
<stop stop-color="#065097"/>
<stop offset="0.5" stop-color="#7264AC"/>
<stop offset="1" stop-color="#AC6FAA"/>
</linearGradient>
<linearGradient id="paint12_linear_6663_10430" x1="0.638525" y1="34.2991" x2="280.864" y2="34.2991" gradientUnits="userSpaceOnUse">
<stop stop-color="#065097"/>
<stop offset="0.5" stop-color="#7264AC"/>
<stop offset="1" stop-color="#AC6FAA"/>
</linearGradient>
<linearGradient id="paint13_linear_6663_10430" x1="0.63471" y1="34.3004" x2="280.86" y2="34.3004" gradientUnits="userSpaceOnUse">
<stop stop-color="#065097"/>
<stop offset="0.5" stop-color="#7264AC"/>
<stop offset="1" stop-color="#AC6FAA"/>
</linearGradient>
<linearGradient id="paint14_linear_6663_10430" x1="0.630029" y1="34.3007" x2="280.855" y2="34.3007" gradientUnits="userSpaceOnUse">
<stop stop-color="#065097"/>
<stop offset="0.5" stop-color="#7264AC"/>
<stop offset="1" stop-color="#AC6FAA"/>
</linearGradient>
<linearGradient id="paint15_linear_6663_10430" x1="0.644346" y1="34.3007" x2="280.87" y2="34.3007" gradientUnits="userSpaceOnUse">
<stop stop-color="#065097"/>
<stop offset="0.5" stop-color="#7264AC"/>
<stop offset="1" stop-color="#AC6FAA"/>
</linearGradient>
<linearGradient id="paint16_linear_6663_10430" x1="0.635341" y1="34.2999" x2="280.861" y2="34.2999" gradientUnits="userSpaceOnUse">
<stop stop-color="#065097"/>
<stop offset="0.5" stop-color="#7264AC"/>
<stop offset="1" stop-color="#AC6FAA"/>
</linearGradient>
<linearGradient id="paint17_linear_6663_10430" x1="0.636624" y1="34.3004" x2="280.862" y2="34.3004" gradientUnits="userSpaceOnUse">
<stop stop-color="#065097"/>
<stop offset="0.5" stop-color="#7264AC"/>
<stop offset="1" stop-color="#AC6FAA"/>
</linearGradient>
<linearGradient id="paint18_linear_6663_10430" x1="0.643093" y1="34.3007" x2="280.868" y2="34.3007" gradientUnits="userSpaceOnUse">
<stop stop-color="#065097"/>
<stop offset="0.5" stop-color="#7264AC"/>
<stop offset="1" stop-color="#AC6FAA"/>
</linearGradient>
<linearGradient id="paint19_linear_6663_10430" x1="0.628576" y1="34.3" x2="280.854" y2="34.3" gradientUnits="userSpaceOnUse">
<stop stop-color="#065097"/>
<stop offset="0.5" stop-color="#7264AC"/>
<stop offset="1" stop-color="#AC6FAA"/>
</linearGradient>
</defs>
</svg>
