<svg width="60" height="61" viewBox="0 0 60 61" fill="none" xmlns="http://www.w3.org/2000/svg">
<path d="M21.7321 49.7661C18.73 49.7661 16.1699 48.7071 14.0519 46.5892C11.934 44.4712 10.875 41.9111 10.875 38.909C10.875 37.6341 11.0909 36.4003 11.5227 35.2077C11.9545 34.015 12.5817 32.9252 13.4042 31.9382L22.0406 21.5746L17.1672 11.7661H42.5828L37.7094 21.5746L46.3458 31.9382C47.1683 32.9252 47.7955 34.015 48.2273 35.2077C48.6591 36.4003 48.875 37.6341 48.875 38.909C48.875 41.9111 47.816 44.4712 45.6981 46.5892C43.5801 48.7071 41.02 49.7661 38.0179 49.7661H21.7321ZM29.875 38.9707C28.8469 38.9707 27.9729 38.6108 27.2532 37.8911C26.5335 37.1714 26.1737 36.2975 26.1737 35.2694C26.1737 34.2412 26.5335 33.3673 27.2532 32.6476C27.9729 31.9279 28.8469 31.5681 29.875 31.5681C30.9031 31.5681 31.7771 31.9279 32.4968 32.6476C33.2164 33.3673 33.5763 34.2412 33.5763 35.2694C33.5763 36.2975 33.2164 37.1714 32.4968 37.8911C31.7771 38.6108 30.9031 38.9707 29.875 38.9707Z" fill="#017670"/>
<circle cx="30.5" cy="35.2661" r="3.5" fill="#D3F6F5"/>
</svg>
