<svg width="60" height="60" viewBox="0 0 60 60" fill="none" xmlns="http://www.w3.org/2000/svg">
<path d="M21.7321 49C18.73 49 16.1699 47.941 14.0519 45.8231C11.934 43.7051 10.875 41.145 10.875 38.1429C10.875 36.868 11.0909 35.6342 11.5227 34.4416C11.9545 33.2489 12.5817 32.1591 13.4042 31.1721L22.0406 20.8084L17.1672 11H42.5828L37.7094 20.8084L46.3458 31.1721C47.1683 32.1591 47.7955 33.2489 48.2273 34.4416C48.6591 35.6342 48.875 36.868 48.875 38.1429C48.875 41.145 47.816 43.7051 45.6981 45.8231C43.5801 47.941 41.02 49 38.0179 49H21.7321ZM29.875 38.2045C28.8469 38.2045 27.9729 37.8447 27.2532 37.125C26.5335 36.4053 26.1737 35.5314 26.1737 34.5032C26.1737 33.4751 26.5335 32.6012 27.2532 31.8815C27.9729 31.1618 28.8469 30.8019 29.875 30.8019C30.9031 30.8019 31.7771 31.1618 32.4968 31.8815C33.2164 32.6012 33.5763 33.4751 33.5763 34.5032C33.5763 35.5314 33.2164 36.4053 32.4968 37.125C31.7771 37.8447 30.9031 38.2045 29.875 38.2045ZM23.6445 20.0682H36.1672L39.8068 12.7273H19.9432L23.6445 20.0682ZM21.7321 47.2727H38.0179C40.5676 47.2727 42.7267 46.3782 44.4951 44.5893C46.2635 42.8003 47.1477 40.6515 47.1477 38.1429C47.1477 37.0736 46.9729 36.0352 46.6234 35.0276C46.2738 34.02 45.7495 33.105 45.0503 32.2825L36.2906 21.7955H23.5211L14.7614 32.2825C14.0622 33.105 13.5276 34.02 13.1575 35.0276C12.7873 36.0352 12.6023 37.0736 12.6023 38.1429C12.6023 40.6515 13.4968 42.8003 15.2857 44.5893C17.0747 46.3782 19.2235 47.2727 21.7321 47.2727Z" fill="#757575"/>
</svg>
