<svg width="140" height="46" viewBox="0 0 140 46" fill="none" xmlns="http://www.w3.org/2000/svg">
<g clip-path="url(#clip0_6419_10008)">
<path d="M11.4664 3.96316C10.4816 3.04711 9.18856 2.53462 7.84364 2.52734C4.70643 2.52734 2.88469 4.88025 2.90544 7.71453C2.90544 10.167 4.362 12.5407 7.84364 12.5407C9.04659 12.5703 10.2167 12.1466 11.1219 11.3539V8.63578H7.38717V6.71859H13.1097V12.217C12.4588 12.971 11.649 13.5715 10.7385 13.9754C9.82805 14.3794 8.83943 14.5767 7.84364 14.5533C2.92618 14.5533 0.789062 11.2792 0.789062 7.71453C0.789062 3.84696 3.27891 0.55621 7.84364 0.55621C9.70635 0.548661 11.4964 1.27812 12.8233 2.58544L11.4664 3.96316Z" fill="#00847C"/>
<path d="M16.9797 10.2999C17.1498 11.7357 18.3366 12.6736 20.0588 12.6736C21.0174 12.6736 22.225 12.3125 22.7976 11.661L24.0799 12.906C23.1047 13.9766 21.478 14.5244 20.0214 14.5244C16.9216 14.5244 14.9297 12.5532 14.9297 9.54465C14.9297 6.67302 16.9382 4.62305 19.9094 4.62305C22.9553 4.62305 25.0219 6.48214 24.6567 10.329L16.9797 10.2999ZM22.7395 8.64001C22.6275 7.1461 21.5361 6.36179 19.9467 6.36179C18.5109 6.36179 17.3241 7.1461 17.017 8.64001H22.7395Z" fill="#00847C"/>
<path d="M35.8357 9.57354C35.8357 12.3663 33.9019 14.4744 30.9348 14.4744C27.9677 14.4744 26.0547 12.3663 26.0547 9.57354C26.0547 6.78076 27.9885 4.65194 30.9182 4.65194C31.5706 4.6287 32.2207 4.74014 32.8281 4.9793C33.4355 5.21847 33.9872 5.58023 34.4486 6.04202C34.91 6.5038 35.2712 7.05571 35.5099 7.66332C35.7486 8.27092 35.8594 8.92118 35.8357 9.57354ZM28.0424 9.57354C28.0424 11.2583 29.1338 12.6361 30.9472 12.6361C32.7607 12.6361 33.8521 11.2583 33.8521 9.57354C33.8521 7.88874 32.6652 6.46953 30.9472 6.46953C29.1172 6.46953 28.0258 7.90534 28.0258 9.57354H28.0424Z" fill="#00847C"/>
<path d="M39.8781 4.80551V15.3915C39.8781 17.7693 39.0191 19.0143 36.8903 19.0143C36.1826 19.0157 35.49 18.8094 34.8984 18.4208L35.608 16.8688C35.9814 17.0609 36.3958 17.1592 36.8156 17.1552C37.7535 17.1344 37.907 16.4871 37.907 15.3915V4.80551H39.8781ZM37.6788 2.02933C37.6788 3.65603 40.1271 3.65603 40.1271 2.02933C40.1271 0.402625 37.6788 0.415074 37.6788 2.02933Z" fill="#00847C"/>
<path d="M44.7765 2.07483C44.7765 3.70153 42.3281 3.70153 42.3281 2.07483C42.3281 0.448124 44.7765 0.456424 44.7765 2.07483ZM42.5564 4.81366V14.2834H44.5482V4.80536L42.5564 4.81366Z" fill="#00847C"/>
<path d="M50.2548 2.125V4.86384H53.0144V6.56523H50.234V11.0677C50.234 12.0637 50.6781 12.6156 51.5952 12.6156C52.0165 12.5975 52.4288 12.487 52.8027 12.2919L53.3754 13.9767C52.7811 14.2518 52.1338 14.3934 51.479 14.3917C49.4331 14.4456 48.2629 13.2795 48.2629 11.0719V6.56523H46.4453V4.86384H48.2837V2.33664L50.2548 2.125Z" fill="#00847C"/>
<path d="M15.0844 24.8201L15.9144 22.0439H1.92969V45.2328H5.17479V34.5554H14.0345L14.7109 31.8166H5.16649V24.8201H15.0844Z" fill="url(#paint0_linear_6419_10008)"/>
<path d="M19.6985 28.5962V45.2325H22.8108V27.8367L19.6985 28.5962ZM22.6614 21.1639C22.271 20.8117 21.7639 20.6167 21.2381 20.6167C20.7122 20.6167 20.2051 20.8117 19.8147 21.1639C19.4414 21.5711 19.2344 22.1034 19.2344 22.6558C19.2344 23.2082 19.4414 23.7405 19.8147 24.1476C20.2051 24.4999 20.7122 24.6949 21.2381 24.6949C21.7639 24.6949 22.271 24.4999 22.6614 24.1476C23.0374 23.7418 23.2462 23.209 23.2462 22.6558C23.2462 22.1026 23.0374 21.5698 22.6614 21.1639Z" fill="url(#paint1_linear_6419_10008)"/>
<path d="M41.879 32.2144C41.6864 31.2977 41.2939 30.4348 40.7295 29.6872C40.1511 28.9577 39.3973 28.3867 38.5384 28.0273C37.4379 27.6047 36.2642 27.4058 35.0858 27.4422C33.7198 27.4278 32.3551 27.5305 31.0066 27.7493C29.8281 27.9485 28.8778 28.1352 28.1641 28.3178V45.2322H31.2722V30.5421L31.8241 30.4425C32.0773 30.3968 32.3678 30.3595 32.6956 30.3221C33.0234 30.2848 33.3595 30.264 33.7123 30.2433C34.065 30.2225 34.4136 30.2101 34.7539 30.2101C35.4588 30.1899 36.1616 30.2967 36.8287 30.5255C37.3655 30.7236 37.8318 31.0759 38.1691 31.538C38.5357 32.0936 38.7817 32.7198 38.8912 33.3764C39.0458 34.2823 39.118 35.2004 39.107 36.1193V45.2322H42.2151V35.4595C42.2242 34.3687 42.1115 33.2802 41.879 32.2144Z" fill="url(#paint2_linear_6419_10008)"/>
<path d="M61.0863 32.2145C60.8904 31.2981 60.4967 30.4356 59.9326 29.6873C59.3543 28.9559 58.5987 28.3845 57.7374 28.0274C56.6399 27.6044 55.4688 27.4054 54.2931 27.4423C53.6358 27.4433 52.9801 27.5058 52.3344 27.629C51.7004 27.7457 51.0782 27.9193 50.4754 28.1477V21.9937L47.3672 22.5248V45.2323H50.4754V30.7787C50.6569 30.7113 50.8426 30.6558 51.0314 30.6127C51.3171 30.5357 51.6066 30.4734 51.8987 30.4259C52.2265 30.372 52.5627 30.3181 52.9237 30.2766C53.2677 30.2322 53.6143 30.2101 53.9611 30.2102C54.6661 30.1896 55.369 30.2964 56.036 30.5255C56.5723 30.7224 57.0376 31.075 57.3722 31.5381C57.7391 32.0931 57.9838 32.7197 58.0901 33.3764C58.2468 34.2821 58.3191 35.2004 58.3059 36.1194V45.2323H61.4224V35.4596C61.4295 34.3689 61.3167 33.2806 61.0863 32.2145Z" fill="url(#paint3_linear_6419_10008)"/>
<path d="M78.8187 29.588C77.571 28.1218 75.7756 27.3887 73.4323 27.3887C72.424 27.3897 71.4253 27.5841 70.4902 27.9613C69.5273 28.3386 68.658 28.9205 67.9422 29.6669C67.1665 30.4904 66.5639 31.4613 66.1703 32.5219C65.7016 33.8154 65.4751 35.1841 65.5022 36.5596C65.4882 37.788 65.6632 39.0113 66.0209 40.1865C66.339 41.2439 66.8811 42.2205 67.6102 43.0498C68.3632 43.8788 69.2958 44.5247 70.3366 44.938C71.5883 45.4247 72.9239 45.6588 74.2664 45.6268C75.3535 45.6383 76.4383 45.5241 77.4991 45.2866C78.1857 45.154 78.8543 44.9409 79.491 44.6516L79.076 42.0456C78.5281 42.2766 77.9617 42.4612 77.3829 42.5975C76.4777 42.8021 75.5512 42.8969 74.6233 42.8797C72.6854 42.8797 71.2537 42.4108 70.3408 41.4771C69.4278 40.5434 68.9008 39.1698 68.7722 37.3605H80.6529C80.6529 37.1821 80.6861 36.987 80.6861 36.7754V36.2608C80.6916 33.2786 80.0692 31.0543 78.8187 29.588ZM68.8137 34.8582C68.8799 34.253 69.0193 33.658 69.2286 33.0863C69.4303 32.5208 69.7326 31.9964 70.1208 31.5384C70.5135 31.0907 70.99 30.7242 71.5235 30.4595C72.1123 30.1729 72.761 30.0307 73.4157 30.0445C73.9859 30.0186 74.5542 30.1272 75.0747 30.3615C75.5951 30.5958 76.0532 30.9492 76.4119 31.3932C77.1564 32.3891 77.5227 33.6172 77.4452 34.8582H68.8137Z" fill="url(#paint4_linear_6419_10008)"/>
<path d="M97.1611 31.3596C96.9549 30.5804 96.5698 29.86 96.0365 29.2557C95.4697 28.6326 94.7566 28.1606 93.9616 27.8821C92.9456 27.5299 91.8746 27.3626 90.7995 27.3883C89.7801 27.3816 88.7621 27.4663 87.7577 27.6414C87.0711 27.7395 86.3975 27.9135 85.7493 28.1602L86.1144 30.7372C86.6745 30.5319 87.2524 30.3791 87.8407 30.2807C88.7303 30.1296 89.6317 30.0587 90.5339 30.0691C91.2043 30.0422 91.8726 30.1612 92.4926 30.4176C92.9599 30.6251 93.3678 30.946 93.6794 31.3513C93.9723 31.7522 94.1773 32.2104 94.2811 32.6958C94.3921 33.1945 94.4478 33.7038 94.4471 34.2147V35.082L93.9782 34.9824L93.1939 34.8579C92.8951 34.8039 92.5756 34.7583 92.2395 34.7251C91.9033 34.6919 91.5797 34.6753 91.2684 34.6753C90.3238 34.6714 89.3817 34.7716 88.459 34.9741C87.6299 35.1513 86.8371 35.4685 86.1144 35.9119C85.4548 36.323 84.9095 36.8939 84.5292 37.5718C84.1158 38.3349 83.9124 39.1942 83.94 40.0617C83.9174 40.947 84.0887 41.8266 84.4421 42.6386C84.7555 43.3239 85.2399 43.917 85.8488 44.3608C86.4939 44.8167 87.2232 45.1398 87.9943 45.3111C88.8801 45.5242 89.7888 45.6274 90.6999 45.6182C91.3943 45.6182 92.0859 45.5891 92.7748 45.531C93.4802 45.4771 94.1276 45.419 94.7293 45.3443C95.331 45.2696 95.8788 45.2073 96.356 45.1327L97.4765 44.9501V34.057C97.4921 33.1478 97.386 32.2407 97.1611 31.3596ZM94.4471 42.7424C93.9804 42.8458 93.5055 42.9083 93.0279 42.9291C92.4594 42.9623 91.8037 42.9748 91.0692 42.9748C90.0602 43.0257 89.0563 42.8019 88.1644 42.3274C87.4465 41.9124 87.0938 41.1115 87.0938 39.9994C87.0669 39.4782 87.2208 38.9637 87.5295 38.5428C87.8178 38.172 88.1886 37.8736 88.6126 37.6714C89.0674 37.4572 89.5535 37.3171 90.0525 37.2564C90.5466 37.192 91.0441 37.1587 91.5423 37.1568C92.1516 37.1492 92.7606 37.188 93.364 37.273C93.739 37.312 94.1057 37.4086 94.4513 37.5594L94.4471 42.7424Z" fill="url(#paint5_linear_6419_10008)"/>
<path d="M107.059 42.7051C106.758 42.6239 106.483 42.4684 106.258 42.2527C106.05 42.028 105.907 41.7513 105.843 41.4518C105.744 41.0347 105.699 40.6065 105.71 40.1779V21.9937L102.594 22.5248V40.6675C102.594 42.3274 103.009 43.535 103.797 44.3152C104.586 45.0953 105.963 45.5061 107.881 45.5601L108.316 42.9457C107.892 42.8977 107.471 42.8172 107.059 42.7051Z" fill="url(#paint6_linear_6419_10008)"/>
<path d="M121.344 42.0872C121.12 42.1785 120.726 42.3237 120.157 42.5395C119.427 42.7745 118.662 42.8812 117.896 42.8549C117.421 42.8639 116.947 42.7966 116.493 42.6557C116.1 42.5278 115.752 42.2902 115.489 41.971C115.187 41.5782 114.981 41.1208 114.887 40.6348C114.739 39.9239 114.671 39.1988 114.684 38.4728V34.5098L111.571 35.2733V38.4894C111.558 39.5175 111.654 40.544 111.858 41.5519C112.013 42.3589 112.351 43.1196 112.845 43.7762C113.329 44.3886 113.97 44.8577 114.7 45.1331C115.641 45.4614 116.634 45.6147 117.63 45.5855C118.533 45.5976 119.433 45.4788 120.303 45.2327C120.87 45.0786 121.425 44.8816 121.962 44.6435L121.344 42.0872Z" fill="url(#paint7_linear_6419_10008)"/>
<path d="M138.946 32.2145C138.75 31.2981 138.356 30.4356 137.792 29.6873C137.215 28.955 136.459 28.3834 135.597 28.0274C134.499 27.6044 133.328 27.4054 132.152 27.4423C130.849 27.4492 129.558 27.6881 128.339 28.1477V21.9937L125.227 22.5248V45.2323H128.339V30.7787C128.519 30.7105 128.703 30.6551 128.891 30.6127C129.178 30.5353 129.469 30.4729 129.762 30.4259C130.086 30.372 130.422 30.3181 130.783 30.2766C131.127 30.2322 131.474 30.2101 131.821 30.2102C132.525 30.1896 133.228 30.2964 133.895 30.5255C134.432 30.7224 134.897 31.075 135.232 31.5381C135.598 32.0931 135.843 32.7197 135.95 33.3764C136.106 34.2821 136.178 35.2004 136.165 36.1194V45.2323H139.282V35.4596C139.289 34.3689 139.176 33.2806 138.946 32.2145Z" fill="url(#paint8_linear_6419_10008)"/>
<path d="M119.425 27.0608V29.9034H115.068V32.5053L111.959 33.1236V29.9034H107.391V27.0608H111.959V22.5459H115.068V27.0608H119.425Z" fill="url(#paint9_linear_6419_10008)"/>
</g>
<defs>
<linearGradient id="paint0_linear_6419_10008" x1="-83.9619" y1="-29.2055" x2="38.0616" y2="53.3497" gradientUnits="userSpaceOnUse">
<stop stop-color="#E72887"/>
<stop offset="0.38" stop-color="#1D86B5"/>
<stop offset="0.84" stop-color="#00648D"/>
<stop offset="1" stop-color="#2D2E83"/>
</linearGradient>
<linearGradient id="paint1_linear_6419_10008" x1="-79.8997" y1="-35.2104" x2="42.1238" y2="47.3489" gradientUnits="userSpaceOnUse">
<stop stop-color="#E72887"/>
<stop offset="0.38" stop-color="#1D86B5"/>
<stop offset="0.84" stop-color="#00648D"/>
<stop offset="1" stop-color="#2D2E83"/>
</linearGradient>
<linearGradient id="paint2_linear_6419_10008" x1="-77.6505" y1="-38.5305" x2="44.373" y2="44.0288" gradientUnits="userSpaceOnUse">
<stop stop-color="#E72887"/>
<stop offset="0.38" stop-color="#1D86B5"/>
<stop offset="0.84" stop-color="#00648D"/>
<stop offset="1" stop-color="#2D2E83"/>
</linearGradient>
<linearGradient id="paint3_linear_6419_10008" x1="141.708" y1="23.8693" x2="-60.4558" y2="46.8258" gradientUnits="userSpaceOnUse">
<stop stop-color="#E72887"/>
<stop offset="0.38" stop-color="#1D86B5"/>
<stop offset="0.84" stop-color="#00648D"/>
<stop offset="1" stop-color="#2D2E83"/>
</linearGradient>
<linearGradient id="paint4_linear_6419_10008" x1="142.264" y1="28.7788" x2="-59.8992" y2="51.7311" gradientUnits="userSpaceOnUse">
<stop stop-color="#E72887"/>
<stop offset="0.38" stop-color="#1D86B5"/>
<stop offset="0.84" stop-color="#00648D"/>
<stop offset="1" stop-color="#2D2E83"/>
</linearGradient>
<linearGradient id="paint5_linear_6419_10008" x1="142.481" y1="30.6583" x2="-59.6829" y2="53.6106" gradientUnits="userSpaceOnUse">
<stop stop-color="#E72887"/>
<stop offset="0.38" stop-color="#1D86B5"/>
<stop offset="0.84" stop-color="#00648D"/>
<stop offset="1" stop-color="#2D2E83"/>
</linearGradient>
<linearGradient id="paint6_linear_6419_10008" x1="142.373" y1="29.7329" x2="-59.7903" y2="52.6894" gradientUnits="userSpaceOnUse">
<stop stop-color="#E72887"/>
<stop offset="0.38" stop-color="#1D86B5"/>
<stop offset="0.84" stop-color="#00648D"/>
<stop offset="1" stop-color="#2D2E83"/>
</linearGradient>
<linearGradient id="paint7_linear_6419_10008" x1="143.197" y1="37.0204" x2="-58.9666" y2="59.9768" gradientUnits="userSpaceOnUse">
<stop stop-color="#E72887"/>
<stop offset="0.38" stop-color="#1D86B5"/>
<stop offset="0.84" stop-color="#00648D"/>
<stop offset="1" stop-color="#2D2E83"/>
</linearGradient>
<linearGradient id="paint8_linear_6419_10008" x1="142.697" y1="32.5963" x2="-59.4664" y2="55.5527" gradientUnits="userSpaceOnUse">
<stop stop-color="#E72887"/>
<stop offset="0.38" stop-color="#1D86B5"/>
<stop offset="0.84" stop-color="#00648D"/>
<stop offset="1" stop-color="#2D2E83"/>
</linearGradient>
<linearGradient id="paint9_linear_6419_10008" x1="112.308" y1="29.6046" x2="82.3469" y2="60.2837" gradientUnits="userSpaceOnUse">
<stop stop-color="#E72887"/>
<stop offset="0.38" stop-color="#1D86B5"/>
<stop offset="0.84" stop-color="#00648D"/>
<stop offset="1" stop-color="#2D2E83"/>
</linearGradient>
<clipPath id="clip0_6419_10008">
<rect width="139.706" height="46" fill="white" transform="translate(0.148438)"/>
</clipPath>
</defs>
</svg>
