<svg width="25" height="24" viewBox="0 0 25 24" fill="none" xmlns="http://www.w3.org/2000/svg">
<path d="M2.85156 12C2.85156 17.523 7.32856 22 12.8516 22C18.3746 22 22.8516 17.523 22.8516 12C22.8516 6.477 18.3746 2 12.8516 2C7.32856 2 2.85156 6.477 2.85156 12Z" stroke="#757575" stroke-width="1.5" stroke-linecap="round" stroke-linejoin="round"/>
<path d="M13.8544 2.0498C13.8544 2.0498 16.8544 5.9998 16.8544 11.9998C16.8544 17.9998 13.8544 21.9498 13.8544 21.9498M11.8544 21.9498C11.8544 21.9498 8.85437 17.9998 8.85437 11.9998C8.85437 5.9998 11.8544 2.0498 11.8544 2.0498M3.48438 15.4998H22.2244M3.48438 8.4998H22.2244" stroke="#757575" stroke-width="1.5" stroke-linecap="round" stroke-linejoin="round"/>
</svg>
