<svg width="60" height="60" viewBox="0 0 60 60" fill="none" xmlns="http://www.w3.org/2000/svg">
<path d="M5 52.5V47.5H27.5V19.5625C26.4167 19.1875 25.4792 18.6042 24.6875 17.8125C23.8958 17.0208 23.3125 16.0833 22.9375 15H15L22.5 32.5C22.5 34.5833 21.6458 36.3542 19.9375 37.8125C18.2292 39.2708 16.1667 40 13.75 40C11.3333 40 9.27083 39.2708 7.5625 37.8125C5.85417 36.3542 5 34.5833 5 32.5L12.5 15H7.5V10H22.9375C23.4375 8.54167 24.3333 7.34417 25.625 6.4075C26.9167 5.47084 28.375 5.00167 30 5C31.625 4.99834 33.0833 5.4675 34.375 6.4075C35.6667 7.3475 36.5625 8.545 37.0625 10H52.5V15H47.5L55 32.5C55 34.5833 54.1458 36.3542 52.4375 37.8125C50.7292 39.2708 48.6667 40 46.25 40C43.8333 40 41.7708 39.2708 40.0625 37.8125C38.3542 36.3542 37.5 34.5833 37.5 32.5L45 15H37.0625C36.6875 16.0833 36.1042 17.0208 35.3125 17.8125C34.5208 18.6042 33.5833 19.1875 32.5 19.5625V47.5H55V52.5H5ZM41.5625 32.5H50.9375L46.25 21.625L41.5625 32.5ZM9.0625 32.5H18.4375L13.75 21.625L9.0625 32.5ZM30 15C30.7083 15 31.3025 14.76 31.7825 14.28C32.2625 13.8 32.5017 13.2067 32.5 12.5C32.4983 11.7933 32.2583 11.2 31.78 10.72C31.3017 10.24 30.7083 10 30 10C29.2917 10 28.6983 10.24 28.22 10.72C27.7417 11.2 27.5017 11.7933 27.5 12.5C27.4983 13.2067 27.7383 13.8008 28.22 14.2825C28.7017 14.7642 29.295 15.0033 30 15Z" fill="#FECC09"/>
</svg>
