<svg width="60" height="60" viewBox="0 0 60 60" fill="none" xmlns="http://www.w3.org/2000/svg">
<path d="M30.0087 14.2969C40.3317 14.2969 48.7001 22.6652 48.7001 32.9883V46.6406C48.7001 47.1379 48.5025 47.6148 48.1509 47.9665C47.7993 48.3181 47.3224 48.5156 46.8251 48.5156H13.1923C12.695 48.5156 12.2181 48.3181 11.8664 47.9665C11.5148 47.6148 11.3173 47.1379 11.3173 46.6406V32.9883C11.3173 22.6652 19.6856 14.2969 30.0087 14.2969ZM28.368 3.98438H31.6493C31.7736 3.98438 31.8928 4.03376 31.9808 4.12167C32.0687 4.20958 32.118 4.3288 32.118 4.45312V10.0781C32.118 10.2024 32.0687 10.3217 31.9808 10.4096C31.8928 10.4975 31.7736 10.5469 31.6493 10.5469H28.368C28.2437 10.5469 28.1245 10.4975 28.0366 10.4096C27.9487 10.3217 27.8993 10.2024 27.8993 10.0781V4.45312C27.8993 4.3288 27.9487 4.20958 28.0366 4.12167C28.1245 4.03376 28.2437 3.98438 28.368 3.98438ZM10.3944 11.2301C10.4379 11.1865 10.4896 11.1519 10.5465 11.1283C10.6035 11.1047 10.6645 11.0926 10.7261 11.0926C10.7877 11.0926 10.8487 11.1047 10.9056 11.1283C10.9625 11.1519 11.0142 11.1865 11.0577 11.2301L15.035 15.2074C15.1229 15.2953 15.1722 15.4145 15.1722 15.5388C15.1722 15.663 15.1229 15.7822 15.035 15.8701L12.7147 18.1904C12.6268 18.2783 12.5076 18.3276 12.3834 18.3276C12.2591 18.3276 12.1399 18.2783 12.052 18.1904L8.07469 14.2131C7.98684 14.1252 7.9375 14.006 7.9375 13.8817C7.9375 13.7575 7.98684 13.6383 8.07469 13.5504L10.395 11.2301H10.3944ZM49.6288 11.2301L51.9491 13.5504C52.0368 13.6383 52.086 13.7573 52.086 13.8814C52.086 14.0056 52.0368 14.1246 51.9491 14.2125L47.9718 18.191C47.9282 18.2346 47.8765 18.2692 47.8196 18.2928C47.7627 18.3164 47.7017 18.3285 47.6401 18.3285C47.5785 18.3285 47.5175 18.3164 47.4606 18.2928C47.4037 18.2692 47.352 18.2346 47.3085 18.191L44.9882 15.8707C44.9446 15.8272 44.91 15.7755 44.8864 15.7186C44.8628 15.6617 44.8507 15.6007 44.8507 15.5391C44.8507 15.4775 44.8628 15.4165 44.8864 15.3596C44.91 15.3027 44.9446 15.251 44.9882 15.2074L48.9661 11.2301C49.054 11.1422 49.1732 11.0929 49.2974 11.0929C49.4217 11.0929 49.5409 11.1422 49.6288 11.2301ZM11.2587 52.2656H48.7587C49.256 52.2656 49.7329 52.4632 50.0845 52.8148C50.4361 53.1664 50.6337 53.6433 50.6337 54.1406V55.5469C50.6337 55.6712 50.5843 55.7904 50.4964 55.8783C50.4085 55.9662 50.2892 56.0156 50.1649 56.0156H9.85242C9.7281 56.0156 9.60887 55.9662 9.52096 55.8783C9.43305 55.7904 9.38367 55.6712 9.38367 55.5469V54.1406C9.38367 53.6433 9.58121 53.1664 9.93284 52.8148C10.2845 52.4632 10.7614 52.2656 11.2587 52.2656ZM19.9305 33.6914V48.5156H23.6805V33.6914H19.9305Z" fill="#F7A219"/>
</svg>
