<svg width="60" height="60" viewBox="0 0 60 60" fill="none" xmlns="http://www.w3.org/2000/svg">
<path fill-rule="evenodd" clip-rule="evenodd" d="M45.0033 2.14307C44.5793 2.14316 44.1649 2.26903 43.8124 2.50477C43.46 2.7405 43.1854 3.0755 43.0235 3.46735C42.8615 3.8592 42.8194 4.2903 42.9025 4.70608C42.9857 5.12186 43.1903 5.50363 43.4905 5.80307L46.7733 9.08592L36.3248 18.0002L20.8962 6.42878C20.4771 6.11753 19.9767 5.93447 19.4556 5.90176C18.9346 5.86905 18.4153 5.9881 17.9605 6.24449L2.96049 14.8159C2.3433 15.1683 1.89135 15.7514 1.70408 16.437C1.51681 17.1225 1.60956 17.8544 1.96192 18.4716C2.31428 19.0888 2.89739 19.5408 3.58297 19.728C4.26855 19.9153 5.00044 19.8226 5.61763 19.4702L19.0919 11.7688L34.8248 23.5716C35.311 23.9363 35.9068 24.1247 36.5142 24.106C37.1217 24.0873 37.7048 23.8626 38.1676 23.4688L50.5748 12.8831L54.2048 16.5174C54.5047 16.8163 54.8865 17.0198 55.3019 17.1019C55.7174 17.1841 56.1479 17.1413 56.539 16.9789C56.9302 16.8166 57.2644 16.542 57.4996 16.1898C57.7348 15.8377 57.8604 15.4237 57.8605 15.0002V4.28592C57.8605 3.7176 57.6347 3.17256 57.2329 2.77069C56.831 2.36883 56.286 2.14307 55.7176 2.14307H45.0033ZM58.3962 23.5716C58.3961 23.0701 58.2552 22.5787 57.9896 22.1533C57.7239 21.7279 57.3441 21.3857 56.8935 21.1655C56.4429 20.9453 55.9395 20.8561 55.4407 20.9079C54.9419 20.9598 54.4676 21.1506 54.0719 21.4588L36.4019 35.2031L20.8962 23.5716C20.4771 23.2604 19.9767 23.0773 19.4556 23.0446C18.9346 23.0119 18.4153 23.131 17.9605 23.3874L2.96049 31.9588C2.55167 32.1948 2.21187 32.5339 1.975 32.9422C1.73812 33.3506 1.61244 33.8139 1.61049 34.2859V55.7145C1.61049 57.1931 2.81049 58.3931 4.28906 58.3931H55.7176C57.1962 58.3931 58.3962 57.1931 58.3962 55.7145V23.5716ZM38.0776 40.6845L53.0391 29.0488V53.0359H36.4319V41.2502C37.0284 41.2517 37.6081 41.0524 38.0776 40.6845ZM19.2891 29.0616L19.0919 28.9116L6.96763 35.8416V53.0359H19.2891V29.0616Z" fill="#7DBB42"/>
</svg>
