<svg width="61" height="61" viewBox="0 0 61 61" fill="none" xmlns="http://www.w3.org/2000/svg">
<path d="M33.6886 26.9327L27.9757 32.62L25.6393 30.2922C25.2749 29.9366 24.6916 29.9366 24.3271 30.2922C23.9574 30.653 23.9514 31.2438 24.3137 31.6119L27.313 34.5997C27.4888 34.7748 27.7271 34.8731 27.9758 34.8731C28.2244 34.8731 28.4628 34.7748 28.6386 34.5997L35.0277 28.239C35.39 27.8709 35.384 27.2799 35.0143 26.9192C34.6445 26.5585 34.051 26.5645 33.6886 26.9327ZM45.113 15.3727C45.0069 14.868 44.51 14.5444 44.0031 14.6499C39.3732 15.6232 34.5454 14.6404 30.6711 11.9356C30.3482 11.7096 29.9174 11.7096 29.5945 11.9356C25.7203 14.6405 20.8924 15.6235 16.2626 14.6499C16.1996 14.6368 16.1355 14.6302 16.0712 14.6302C15.5533 14.6299 15.1332 15.0475 15.1328 15.5632V30.531C15.1359 36.0118 17.7864 41.1569 22.2556 44.3576L29.5872 49.5911C29.7461 49.705 29.937 49.7663 30.1328 49.7661C30.3286 49.7663 30.5195 49.7052 30.6785 49.5912L38.01 44.3576C42.4793 41.1569 45.1297 36.0118 45.1328 30.531V15.5632C45.1328 15.4992 45.1262 15.4354 45.113 15.3727ZM43.2578 30.531C43.2558 35.4103 40.8969 39.991 36.9187 42.8409L30.1328 47.6844L23.3469 42.8409C19.3687 39.9909 17.0099 35.4103 17.0078 30.531V16.6788C21.5861 17.3597 26.2562 16.3446 30.1328 13.826C34.0097 16.344 38.6796 17.359 43.2578 16.6788V30.531Z" fill="#757575"/>
</svg>
