<svg width="61" height="60" viewBox="0 0 61 60" fill="none" xmlns="http://www.w3.org/2000/svg">
<path d="M16.5415 49C15.6315 49 14.8581 48.6815 14.2211 48.0445C13.5841 47.4076 13.2656 46.6341 13.2656 45.7241V18.6437C13.2656 17.7337 13.5841 16.9602 14.2211 16.3233C14.8581 15.6863 15.6315 15.3678 16.5415 15.3678H27.1334C26.7331 14.3123 26.8423 13.3204 27.461 12.3922C28.0798 11.4641 28.9534 11 30.0817 11C31.2465 11 32.1382 11.4641 32.757 12.3922C33.3758 13.3204 33.4668 14.3123 33.03 15.3678H43.6219C44.5319 15.3678 45.3054 15.6863 45.9423 16.3233C46.5793 16.9602 46.8978 17.7337 46.8978 18.6437V45.7241C46.8978 46.6341 46.5793 47.4076 45.9423 48.0445C45.3054 48.6815 44.5319 49 43.6219 49H16.5415ZM20.5817 41.0287H33.03V39.5H20.5817V41.0287ZM20.5817 32.9483H39.5817V31.4195H20.5817V32.9483ZM20.5817 24.8678H39.5817V23.3391H20.5817V24.8678ZM30.0817 15.8046C30.5549 15.8046 30.9462 15.6499 31.2556 15.3405C31.565 15.0311 31.7196 14.6398 31.7196 14.1667C31.7196 13.6935 31.565 13.3022 31.2556 12.9928C30.9462 12.6834 30.5549 12.5287 30.0817 12.5287C29.6085 12.5287 29.2173 12.6834 28.9079 12.9928C28.5985 13.3022 28.4438 13.6935 28.4438 14.1667C28.4438 14.6398 28.5985 15.0311 28.9079 15.3405C29.2173 15.6499 29.6085 15.8046 30.0817 15.8046Z" fill="#017670"/>
</svg>
