<svg width="120" height="117" viewBox="0 0 120 117" fill="none" xmlns="http://www.w3.org/2000/svg">
<rect width="120.005" height="116.753" rx="58.3764" fill="#D3F7F5"/>
<path d="M90.808 55.3786V58.3947C90.804 65.3883 88.5394 72.1932 84.352 77.7946C80.1645 83.3959 74.2786 87.4936 67.5721 89.4766C60.8655 91.4595 53.6976 91.2214 47.1375 88.7977C40.5773 86.3741 34.9763 81.8948 31.1699 76.0278C27.3634 70.1609 25.5555 63.2207 26.0156 56.2423C26.4758 49.2639 29.1794 42.6212 33.7233 37.3049C38.2671 31.9885 44.4078 28.2835 51.2294 26.7422C58.051 25.201 65.1881 25.9061 71.5762 28.7525" stroke="#14AE5C" stroke-width="6.48626" stroke-linecap="round" stroke-linejoin="round"/>
<path d="M94.0601 29.207L58.3856 64.8815L48.6562 55.1521" stroke="#14AE5C" stroke-width="6.48626" stroke-linecap="round" stroke-linejoin="round"/>
</svg>
