<svg width="61" height="61" viewBox="0 0 61 61" fill="none" xmlns="http://www.w3.org/2000/svg">
<path d="M16.5415 49.5322C15.6315 49.5322 14.8581 49.2137 14.2211 48.5768C13.5841 47.9398 13.2656 47.1663 13.2656 46.2564V19.1759C13.2656 18.2659 13.5841 17.4925 14.2211 16.8555C14.8581 16.2185 15.6315 15.9 16.5415 15.9H27.1334C26.7331 14.8445 26.8423 13.8526 27.461 12.9245C28.0798 11.9963 28.9534 11.5322 30.0817 11.5322C31.2465 11.5322 32.1382 11.9963 32.757 12.9245C33.3758 13.8526 33.4668 14.8445 33.03 15.9H43.6219C44.5319 15.9 45.3054 16.2185 45.9423 16.8555C46.5793 17.4925 46.8978 18.2659 46.8978 19.1759V46.2564C46.8978 47.1663 46.5793 47.9398 45.9423 48.5768C45.3054 49.2137 44.5319 49.5322 43.6219 49.5322H16.5415ZM16.5415 48.0035H43.6219C44.0587 48.0035 44.4591 47.8215 44.8231 47.4575C45.1871 47.0935 45.3691 46.6931 45.3691 46.2564V19.1759C45.3691 18.7391 45.1871 18.3387 44.8231 17.9748C44.4591 17.6108 44.0587 17.4288 43.6219 17.4288H16.5415C16.1047 17.4288 15.7043 17.6108 15.3403 17.9748C14.9764 18.3387 14.7944 18.7391 14.7944 19.1759V46.2564C14.7944 46.6931 14.9764 47.0935 15.3403 47.4575C15.7043 47.8215 16.1047 48.0035 16.5415 48.0035ZM20.5817 41.561H33.03V40.0322H20.5817V41.561ZM20.5817 33.4805H39.5817V31.9518H20.5817V33.4805ZM20.5817 25.4H39.5817V23.8713H20.5817V25.4ZM30.0817 16.3368C30.5549 16.3368 30.9462 16.1821 31.2556 15.8727C31.565 15.5634 31.7196 15.1721 31.7196 14.6989C31.7196 14.2257 31.565 13.8344 31.2556 13.525C30.9462 13.2157 30.5549 13.061 30.0817 13.061C29.6085 13.061 29.2173 13.2157 28.9079 13.525C28.5985 13.8344 28.4438 14.2257 28.4438 14.6989C28.4438 15.1721 28.5985 15.5634 28.9079 15.8727C29.2173 16.1821 29.6085 16.3368 30.0817 16.3368Z" fill="#757575"/>
</svg>
